<?xml version="1.0" encoding="utf-8" ?>
<svg xmlns="http://www.w3.org/2000/svg" xmlns:xlink="http://www.w3.org/1999/xlink" width="1024" height="1024">
	<path fill="#FEFEFE" d="M0 0L1024 0L1024 1024L0 1024L0 0Z"/>
	<path d="M490.281 28.72C508.306 28.3321 526.339 28.4941 544.353 29.2056C563.929 29.9076 584.456 30.6783 603.614 35.0501C611.037 36.7441 618.489 39.2821 625.155 42.9985C632.762 47.1734 639.585 52.6392 645.319 59.1515C669.438 86.9294 683.015 138.958 692.837 173.89C749.443 200.173 811.599 246.413 842.201 301.905C858.865 332.122 870.543 361.937 881.908 394.417C908.024 469.063 925.607 547.502 938.496 625.472C940.414 637.078 941.845 648.774 943.58 660.41C949.498 700.106 955.163 739.967 957.514 780.053C958.758 801.274 961.389 842.086 955.756 861.168C952.589 871.899 945.959 878.382 936.317 883.558C936.698 891.618 944.317 928.428 942.076 932.67C939.081 938.341 923.411 941.084 917.35 942.442C898.366 946.694 856.378 952.157 839.919 941.736C835.825 930.106 833.998 907.089 833.25 894.345C829.66 893.332 826.22 891.848 823.02 889.931C818.2 887.07 813.574 883.232 810.492 878.505C803.001 867.017 799.248 839.978 795.649 826.079C793.367 855.516 800.595 878.971 777.347 902.608C777.412 919.959 777.869 945.135 764.914 958.386C759.169 964.262 748.028 966.546 740.335 968.809C677.99 987.148 606.834 987.463 542.125 988.756C492.256 989.979 442.357 988.794 392.603 985.205C356.455 982.392 319.197 978.847 284.481 967.866C274.904 964.836 264.547 961.412 256.811 954.764C242.872 942.787 248.113 921.26 244.886 905.178C243.516 898.345 237.996 892.64 236.044 885.764C231.371 869.302 231.343 850.654 230.143 833.606C228.213 844.923 225.765 857.872 221.053 868.343C214.85 882.129 205.478 889.281 191.605 894.598C191.187 903.605 188.993 912.76 187.698 921.69C186.813 927.799 186.627 933.975 185.574 940.058C179.257 946.238 167.911 946.991 159.5 947.332C138.141 948.2 116.404 944.221 95.8997 938.634C91.8118 937.521 85.3024 936.336 82.2218 933.286C81.3175 932.39 81.2966 931.531 81.3051 930.32C81.3355 925.966 82.2919 921.436 82.8845 917.115C84.4359 905.803 86.6223 894.17 87.0377 882.761C78.3369 877.098 71.9723 872.176 68.6525 861.878C59.9002 834.73 65.3157 790.117 67.8159 761.486C74.9905 685.852 86.7361 610.721 102.988 536.506C119.332 462.028 140.622 381.193 175.719 313.168C201.854 262.513 245.682 223.221 294.322 194.674C305.403 188.171 319.192 180.101 331.35 176.211C337.589 142.134 354.221 86.5027 377.799 60.7273C405.435 30.5169 452.135 30.3978 490.281 28.72Z"/>
	<path fill="#E3512A" d="M209.738 285.202C233.821 251.815 276.962 218.686 313.324 199.884C318.954 196.973 324.663 193.597 330.642 191.47C330.187 199.431 331.321 205.278 334.818 212.432C338.144 217.725 341.751 222.268 346.352 226.513C361.8 240.766 380.243 252.513 397.017 265.171C407.334 272.955 416.943 282.305 427.852 289.207C432.331 292.041 437.182 294.276 442.354 295.486C452.678 297.902 465.878 296.896 474.965 291.08C484.364 285.063 489.209 274.454 493.493 264.574L493.639 921.489C437.406 921.232 381.231 917.817 325.38 911.259C311.458 909.71 284.879 907.311 271.952 902.291C264.983 900.546 258.647 898.135 253.584 892.799C249.065 888.035 247.477 882.31 246.488 876.013C244.808 865.312 244.934 854.209 244.775 843.403C244.558 828.543 244.459 813.682 244.477 798.821C244.666 746.915 245.61 695.015 247.31 643.136C247.901 625.501 249.038 607.886 249.589 590.25L260.16 592.247C295.116 599.345 375.57 601.843 408.914 593.899C414.525 592.561 420.111 590.553 424.95 587.363C433.718 581.585 438.194 572.571 440.234 562.508C441.9 554.289 444.743 509.853 440.949 504.107C436.541 503.046 430.018 503.909 425.429 503.953C416.641 504.014 407.853 504.021 399.065 503.975L254.84 503.948C255.025 487.428 257.047 470.822 258.067 454.332C258.663 444.714 258.528 426.637 260.656 418.006C262.803 409.299 267.097 400.397 271.035 392.353C279.104 375.87 289.892 360.317 296.651 343.266C280.424 361.266 268.182 383.339 258.794 405.518C256.806 396.965 255.468 388.326 253.188 379.822C246.302 354.133 235.791 330.609 223.934 306.915C219.592 299.326 214.93 292.238 209.738 285.202Z"/>
	<path fill="#F88860" d="M249.589 590.25L260.16 592.247C260.398 613.388 259.849 634.576 259.591 655.719L258.059 793.803C257.993 809.862 258.133 825.921 258.48 841.977C258.622 853.559 258.17 865.32 260.055 876.794C261.004 882.572 262.904 888.259 265.989 893.252C267.545 895.77 271.364 899.629 271.952 902.291C264.983 900.546 258.647 898.135 253.584 892.799C249.065 888.035 247.477 882.31 246.488 876.013C244.808 865.312 244.934 854.209 244.775 843.403C244.558 828.543 244.459 813.682 244.477 798.821C244.666 746.915 245.61 695.015 247.31 643.136C247.901 625.501 249.038 607.886 249.589 590.25Z"/>
	<path fill="#F88860" d="M209.738 285.202C233.821 251.815 276.962 218.686 313.324 199.884C318.954 196.973 324.663 193.597 330.642 191.47C330.187 199.431 331.321 205.278 334.818 212.432C299.139 225.704 267.308 251.691 243.365 280.904C239.248 285.947 235.32 291.142 231.592 296.479C229.127 299.948 226.804 303.774 223.934 306.915C219.592 299.326 214.93 292.238 209.738 285.202Z"/>
	<path d="M332.838 644.129C335.459 644.042 338.066 644.541 340.47 645.589C344.707 647.403 347.785 650.668 349.511 654.917C349.618 655.181 349.715 655.448 349.82 655.711C350.048 656.281 350.183 656.533 350.348 657.126C351.585 661.554 349.126 669.362 348.131 673.859C340.585 707.961 331.132 741.8 322.682 775.699C318.201 793.679 314.754 811.916 310.283 829.869C309.826 831.703 309.381 833.941 308.315 835.527C305.383 839.888 301.369 841.436 296.438 842.487C293.111 842.371 290.37 841.854 287.415 840.252C283.54 838.152 280.483 834.813 279.214 830.549C278.72 828.89 278.8 827.65 278.998 825.952C279.648 820.389 281.109 814.734 282.227 809.243C284.5 797.922 286.946 786.636 289.564 775.389C296.055 746.059 303.151 716.866 310.849 687.828C313.279 678.605 317.23 659.199 321.682 651.675C324.202 647.416 328.173 645.289 332.838 644.129Z"/>
	<path fill="#E3512A" d="M332.626 650.499C333.819 650.514 334.84 650.574 335.98 650.957C338.867 651.927 341.417 654.167 342.685 656.942C344.094 660.022 343.535 663.495 342.876 666.705C340.879 676.447 337.758 686.077 335.402 695.761L312.209 789.142C310.188 797.159 308.334 805.216 306.649 813.309C305.583 818.485 304.799 826.627 302.684 831.325C301.675 833.567 299.871 834.208 297.758 835.157C296.279 835.284 294.732 835.488 293.261 835.223C291.082 834.831 288.847 833.791 287.609 831.886C286.751 830.567 286.408 829.188 286.413 827.624C286.438 819.963 288.766 811.79 290.359 804.311L295.924 778.09C302.457 747.848 309.913 717.813 318.283 688.027C320.906 678.331 323.239 665.679 327.046 656.587C328.188 653.859 330.188 652.058 332.626 650.499Z"/>
	<path fill="#E3512A" d="M692.043 189.153C702.668 193.159 713.528 200.161 723.187 206.119C759.353 228.424 788.934 251.884 815.296 285.547C795.488 311.473 782.708 341.444 774.118 372.736C771.625 381.817 770.169 391.196 767.46 400.193C762.497 392.836 758.65 384.627 754.251 376.915C748.195 366.258 741.417 356.027 733.967 346.293C742.991 366.863 753.774 386.592 762.929 407.077C763.793 409.011 764.136 410.702 764.276 412.81C764.883 421.89 764.296 431.099 764.704 440.213C765.66 461.6 767.342 482.993 768.04 504.382C728.611 503.885 689.179 503.744 649.748 503.957L608.137 503.88C599.995 503.801 591.601 503.238 583.482 503.637C582.716 503.674 582.896 503.713 582.019 504.119C579.65 509.643 581.1 542.177 581.748 549.677C582.123 553.808 582.746 557.913 583.613 561.97C585.701 572.121 591.659 580.06 600.277 585.668C605.281 588.888 610.735 591.348 616.46 592.968C646.864 601.44 704.265 599.735 735.946 595.251C748.346 593.495 760.331 590.196 772.548 587.545C774.905 611.157 775.451 635.253 776.505 658.977C778.493 702.544 779.672 746.144 780.043 789.755C780.309 801.744 779.948 813.647 779.776 825.629C779.485 845.925 781.433 873.871 766.213 889.766C760.592 895.635 753.344 899.609 745.708 902.216C729.556 907.73 712.049 909.615 695.189 911.755C641.278 918.598 586.325 920.534 532.026 921.329L531.055 472.215L530.655 327.144C530.628 304.81 529.993 282.311 530.58 259.997C533.714 270.414 537.79 280.947 546.32 288.177C554.891 295.442 566.246 297.646 577.215 296.686C583.721 296.135 590.018 294.122 595.636 290.796C604.994 285.252 618.353 272.572 627.608 265.284C638.313 256.855 649.332 248.718 660.183 240.467C668.792 233.921 678.298 227.326 685.263 218.987C693.051 209.661 693.127 200.684 692.043 189.153Z"/>
	<path d="M689.305 644.655C692.241 644.421 695.337 644.637 697.946 646.119C699.851 647.201 701.098 648.762 701.833 650.812C705.631 661.406 707.52 672.981 710.216 683.916C714.32 700.565 718.898 717.092 722.984 733.753C728.835 757.139 734.859 780.482 741.054 803.78C742.86 810.701 745.027 817.537 746.694 824.491C747.47 827.727 747.389 829.646 745.508 832.548C742.439 837.286 737.529 839.771 732.215 841.024C728.069 841.173 723.445 841.271 719.956 838.653C717.618 836.9 716.776 834.509 715.862 831.848C711.862 820.211 709.306 807.674 706.268 795.743L691.275 736.703C686.857 718.671 682.402 700.689 678.24 682.593C676.643 675.646 674.483 668.665 673.351 661.635C672.72 657.717 672.755 654.914 675.278 651.58C678.644 647.133 684.003 645.373 689.305 644.655Z"/>
	<path fill="#E3512A" d="M689.855 651.097C691.051 651.288 692.673 651.422 693.676 652.153C696.229 654.014 697.101 658.889 697.945 661.809C700.789 671.65 702.828 681.766 705.286 691.712L718.577 743.585C722.041 756.879 725.246 770.256 728.865 783.507C732.972 798.543 737.549 813.653 740.654 828.925C737.653 831.928 734.83 833.278 730.708 834.16C728.891 834.18 726.427 834.469 724.789 833.638C723.684 833.078 723.084 832.154 722.63 831.037C720.514 825.831 719.344 819.991 717.925 814.56L710.322 784.948C704.022 760.638 697.947 736.271 692.098 711.849C687.758 694.075 683.799 676.206 678.504 658.684C678.63 658.483 678.754 658.281 678.883 658.083C681.653 653.803 684.973 652.175 689.855 651.097Z"/>
	<path fill="#E3512A" d="M105.64 878.346C102.55 877.421 99.6412 875.909 96.9912 874.084C87.4047 867.48 81.8896 857.339 79.9451 846.024C76.6147 826.645 78.656 805.45 80.2369 785.953C82.536 757.623 85.834 729.383 90.1249 701.286C96.6982 652.716 104.56 604.33 113.701 556.178C123.361 507.438 136.289 456.33 151.727 409.125C165.405 367.297 181.375 325.46 206.796 289.225C211.481 296.067 215.45 303.463 219.481 310.699C236.496 342.5 253.993 388.557 252.948 424.971C243.041 414.509 231.847 403.72 219.126 396.728C230.933 409.313 243.209 422.38 251.618 437.593C250.856 450.499 249.17 463.422 247.829 476.285C244.724 506.059 241.388 535.758 238.632 565.572C237.565 577.107 236.169 588.673 235.542 600.24C233.583 634.761 232.332 669.319 231.79 703.891C231.428 728.059 232.719 752.76 229.638 776.774C227.528 793.215 222.543 809.645 218.754 825.775C216.095 837.093 213.228 854.349 208.805 864.81C207.131 868.769 204.004 872.805 200.849 875.705C187.654 887.834 162.677 884.693 146.214 883.652C134.206 882.893 117.049 881.488 105.64 878.346Z"/>
	<path fill="#F88860" d="M105.64 878.346C102.55 877.421 99.6412 875.909 96.9912 874.084C87.4047 867.48 81.8896 857.339 79.9451 846.024C76.6147 826.645 78.656 805.45 80.2369 785.953C82.536 757.623 85.834 729.383 90.1249 701.286C96.6982 652.716 104.56 604.33 113.701 556.178C123.361 507.438 136.289 456.33 151.727 409.125C165.405 367.297 181.375 325.46 206.796 289.225C211.481 296.067 215.45 303.463 219.481 310.699C185.066 367.459 167.265 441.131 153.114 505.57C143.176 549.959 134.696 594.661 127.688 639.606C119.274 689.721 112.567 740.108 107.579 790.679C105.694 812.674 104.823 834.744 104.969 856.818C104.973 860.666 106.681 876.201 105.64 878.346Z"/>
	<path fill="#E3512A" d="M817.926 289.742L818.644 290.144C845.431 331.258 862.58 378.45 877.207 425.005C903.339 510.442 921.943 598.002 932.804 686.683C935.036 704.228 937.455 721.806 938.891 739.436C940.821 763.141 941.764 786.773 942.492 810.539C942.86 822.541 944.293 835.725 942.241 847.586C941.075 854.324 938.216 861.16 933.712 866.361C929.769 870.914 924.464 874.195 918.824 876.211C904.837 881.21 864.419 884.438 847.972 885.561L847.48 885.596C839.201 886.141 829.703 881.108 823.638 875.603C821.796 873.93 820.22 872.052 819.319 869.71C816.684 862.863 815.303 855.372 813.531 848.256C810.357 835.738 807.263 823.2 804.249 810.643C801.602 799.71 796.633 783.831 795.509 773.117C794.578 764.238 795.023 755.061 794.968 746.134C794.855 727.711 794.951 709.093 793.95 690.706L779.47 427.387C786.421 414.726 794.679 402.941 801.11 389.96C790.482 399.765 782.574 411.109 773.487 422.226C773.425 411.574 775.277 400.893 777.333 390.475C785.123 351.002 798.094 324.229 817.926 289.742Z"/>
	<path fill="#F7981D" d="M489.22 42.2802C499.615 41.6405 510.165 41.8477 520.581 41.9382C541.758 42.1222 563.183 42.8626 584.247 45.1037C603.574 47.1599 623.957 53.4497 636.554 69.2333C642.878 77.1565 643.154 86.6108 642.046 96.2545C638.702 125.351 617.841 149.881 595.715 167.537C581.14 151.542 554.759 140.887 533.907 136.59C524.289 134.781 514.733 133.762 504.926 133.985C477.4 134.611 446.883 145.492 427.624 165.742C423.311 162.038 419.076 158.245 414.921 154.364C396.6 137.114 381.517 115.344 380.887 89.2883C380.669 80.2697 383.532 73.4376 389.709 66.975C411.777 43.8875 459.251 43.0557 489.22 42.2802Z"/>
	<path fill="#2B97BD" d="M256.784 911.352C265.829 914.775 275.024 916.904 284.473 918.819C310.406 923.885 336.85 926.132 363.139 928.501C456.817 936.138 550.935 936.781 644.71 930.426C682.74 928.032 730.23 926.635 765.58 912.168C765.497 924.355 765.034 941.639 755.696 950.754C749.467 956.833 738.132 959.011 729.95 961.289C691.634 971.959 650.83 975.274 611.244 977.649C556.445 980.851 501.522 981.386 446.671 979.252C409.555 977.995 372.553 974.456 335.872 968.653C319.937 965.993 303.745 963.02 288.382 957.906C280.104 955.152 269.347 952.363 263.028 946.1C255.122 938.265 256.875 921.75 256.784 911.352Z"/>
	<path fill="#98D0E2" d="M256.784 911.352C265.829 914.775 275.024 916.904 284.473 918.819C284.539 931.729 285.179 945.372 288.382 957.906C280.104 955.152 269.347 952.363 263.028 946.1C255.122 938.265 256.875 921.75 256.784 911.352Z"/>
	<path fill="#E3512A" d="M505.948 207.454C510.546 207.716 515.087 207.72 519.688 207.641C520.556 214.136 522.29 220.506 522.868 227.054C524.381 244.172 523.433 265.438 523.452 282.978L523.566 388.63L523.563 711.532C523.539 756.587 523.236 801.709 523.852 846.755L524.448 898.013C524.506 905.239 525.364 913.44 524.255 920.545C522.36 921.365 520.401 921.184 518.375 921.175L500.514 921.256L500.6 444.284L500.789 318.858L500.844 263.357C500.863 252.86 500.311 241.898 501.404 231.464C502.249 223.393 504.244 215.382 505.948 207.454Z"/>
	<path fill="#F7981D" d="M363.379 230.481C354.235 224.478 343.323 214.771 339.788 204.034C338.918 201.39 338.683 198.909 338.906 196.143C340.637 174.67 363.383 110.23 373.634 90.5221C374.504 94.696 375.155 98.912 375.846 103.118C385.201 140.826 414.225 167.287 446.458 186.705C463.17 196.773 480.925 202.6 499.875 206.607C497.327 215.892 495.241 225.295 493.046 234.669C489.201 251.093 485.066 275.668 468.982 284.843C461.418 289.158 452.056 289.677 443.781 287.28C438.657 285.796 433.998 283.195 429.587 280.24C418.229 272.632 408.106 263.325 397.199 255.111C391.958 251.165 365.692 233.499 363.379 230.481Z"/>
	<path fill="#FCB13D" d="M363.379 230.481C354.235 224.478 343.323 214.771 339.788 204.034C338.918 201.39 338.683 198.909 338.906 196.143C340.637 174.67 363.383 110.23 373.634 90.5221C374.504 94.696 375.155 98.912 375.846 103.118C373.612 107.009 372.753 112.086 371.407 116.384C365.669 134.712 349.415 193.32 354.004 210.445C354.862 213.649 356.203 216.75 357.795 219.653C358.881 221.633 363.124 227.137 363.455 228.787C363.536 229.192 363.446 230.057 363.379 230.481Z"/>
	<path fill="#F7981D" d="M649.536 89.3263C649.814 89.6221 650.054 89.9521 650.289 90.2828C660.655 104.846 687.624 187.592 683.898 204.73C682.929 209.188 679.299 213.747 676.142 216.944C671.508 221.637 666.029 225.751 660.862 229.842C649.909 238.513 638.604 246.655 627.583 255.212C615.607 264.51 604.336 275.416 591.684 283.726C583.022 289.416 572.184 289.758 562.31 287.762C560.015 287.07 557.818 286.241 555.742 285.023C539.788 275.667 536.163 252.067 532.475 235.597C530.398 225.918 528.171 216.273 525.793 206.663C554.559 201.522 576.783 190.589 599.649 172.705C619.753 156.981 639.513 133.983 646.455 109.089C648.252 102.644 648.718 95.942 649.536 89.3263Z"/>
	<path fill="#F7981D" d="M254.521 510.846C262.242 509.882 270.569 510.472 278.374 510.483L321.62 510.579L397.88 510.736C410.341 510.727 422.873 510.308 435.322 510.582C435.402 519.017 435.395 527.453 435.302 535.888C435.143 548.763 436.154 566.88 426.462 576.895C411.768 592.077 365.553 592.107 344.984 592.016C321.301 592.115 297.64 590.524 274.183 587.255C269.44 586.572 263.683 586.232 259.116 584.799C256.075 584.378 253.037 583.773 250.01 583.256C251.151 559.098 252.655 534.959 254.521 510.846Z"/>
	<path fill="#F7981D" d="M587.689 510.327C606.936 509.779 626.429 510.658 645.695 510.827C686.443 511.227 727.194 511.15 767.94 510.594C769.011 518.151 768.966 526.128 769.459 533.77C770.57 549.361 771.491 564.966 772.221 580.58L763.234 582.808C737.354 589.753 708.985 592.193 682.249 592.062C660.201 591.955 614.517 592.155 598.336 575.303C584.609 561.007 587.569 529.088 587.689 510.327Z"/>
	<path fill="#F7981D" d="M500.863 140.715C501.157 140.684 501.45 140.646 501.745 140.624C531.1 138.422 569.344 151.341 591.441 171.107C574.507 184.97 545.771 197.473 524.53 200.409C523.858 200.524 523.196 200.628 522.518 200.705C494.228 203.913 455.182 187.346 432.907 169.908C451.526 152.053 475.309 142.615 500.863 140.715Z"/>
	<path fill="#2B97BD" d="M925.432 885.151L925.647 885.297C926.048 885.985 932.067 923.012 932.81 927.529C906.77 936.408 878.2 939.859 850.885 936.378C849.815 936.38 849.271 936.261 848.318 935.774C845.793 929.595 843.892 903.92 842.49 895.066C872.822 893.868 895.818 891.832 925.432 885.151Z"/>
	<path fill="#2B97BD" d="M97.6839 886.253C103.885 888.183 110.032 889.577 116.452 890.57C124.889 891.329 133.259 892.703 141.696 893.487C155.012 894.708 168.383 895.223 181.753 895.031C179.506 908.292 176.96 922.319 176.364 935.749C153.515 939.449 132.585 938.193 110.085 933.289C104.089 931.639 98.2104 929.603 92.3143 927.632C93.4895 914.365 95.6838 899.495 97.6839 886.253Z"/>
	<path fill="#98D0E2" d="M97.6839 886.253C103.885 888.183 110.032 889.577 116.452 890.57C116.515 902.383 112.744 921.448 110.085 933.289C104.089 931.639 98.2104 929.603 92.3143 927.632C93.4895 914.365 95.6838 899.495 97.6839 886.253Z"/>
</svg>
