<?xml version="1.0" encoding="utf-8" ?>
<svg xmlns="http://www.w3.org/2000/svg" xmlns:xlink="http://www.w3.org/1999/xlink" width="300" height="300">
	<path fill="#309CCD" transform="scale(0.292969 0.292969)" d="M0 0L1024 0L1024 1024L0 1024L0 0Z"/>
	<path fill="#010303" transform="scale(0.292969 0.292969)" d="M425.751 918.754C411.309 916.239 397.284 911.961 383.35 907.488C297.192 879.275 222.361 824.159 169.863 750.246C114.082 671.171 87.6516 575.105 95.1317 478.625C96.3301 462.475 98.7449 446.559 101.545 430.62C105.11 410.324 111.106 390.349 118.153 371.008C126.038 349.366 135.086 328.642 146.307 308.505C150.85 300.352 156.031 292.514 161.146 284.711C190.439 240.025 227.738 199.244 271.687 168.529C362.882 104.518 475.925 79.7245 585.539 99.6919C693.324 118.844 791.115 184.032 853.519 273.533C918.073 364.217 943.183 477.164 923.133 586.656C904.29 692.78 843.997 787.046 755.558 848.656C710.91 879.631 657.037 905.592 603.338 915.77C601.09 925.152 595.949 932.939 587.551 937.942C580.379 942.215 571.365 942.582 563.434 940.434C555.258 938.219 550.378 933.338 545.335 926.908C523.993 928.888 502.522 927.924 481.156 927.05C475.373 934.358 468.901 939.207 459.379 940.325C451.314 941.272 442.145 939.147 435.742 934.041C430.784 930.087 427.665 924.719 425.751 918.754Z"/>
	<path fill="#042241" transform="scale(0.292969 0.292969)" d="M487.205 912.621C505.12 912.791 523.037 912.607 540.945 912.07C541.56 918.06 543.252 921.468 545.335 926.908C523.993 928.888 502.522 927.924 481.156 927.05C483.982 922.395 485.632 917.818 487.205 912.621Z"/>
	<path fill="#010303" transform="scale(0.292969 0.292969)" d="M429.404 810.428C428.45 810.479 427.495 810.515 426.54 810.537C403.588 810.899 380.528 810.196 357.56 810.208C346.932 810.213 319.688 811.387 310.879 809.441C303.867 807.892 297.017 804.515 291.893 799.443C286.459 794.064 282.309 786.469 281.315 778.837C280.571 773.124 280.864 767.164 280.862 761.413L280.883 734.234L280.876 642.455L279.586 329.299C279.582 316.015 285.236 302.001 294.749 292.598C312.475 275.078 334.857 278.736 357.445 278.867L611.856 279.133L681.622 279.25C692.483 279.272 705.531 278.065 716.084 279.894C724.849 281.413 733.634 286.436 739.854 292.723C756.777 309.831 753.71 330.733 753.435 352.754C753.051 383.49 753.26 414.201 753.211 444.939L753.062 657.923L752.97 733.084C752.999 745.516 754.193 762.732 752.368 774.702C751.026 783.504 746.203 792.294 739.837 798.466C733.057 804.918 724.449 809.117 715.192 810.49C705.43 811.906 694.542 810.896 684.658 810.859L631.268 810.932C564.012 810.999 496.645 811.382 429.404 810.428Z"/>
	<defs>
		<linearGradient id="gradient_0" gradientUnits="userSpaceOnUse" x1="410.12781" y1="738.2843" x2="726.43927" y2="283.58817">
			<stop offset="0" stop-color="#B39D96"/>
			<stop offset="1" stop-color="#B2AEA9"/>
		</linearGradient>
	</defs>
	<path fill="url(#gradient_0)" transform="scale(0.292969 0.292969)" d="M357.445 278.867L611.856 279.133L681.622 279.25C692.483 279.272 705.531 278.065 716.084 279.894C724.849 281.413 733.634 286.436 739.854 292.723C756.777 309.831 753.71 330.733 753.435 352.754C753.051 383.49 753.26 414.201 753.211 444.939L753.062 657.923L752.97 733.084C752.999 745.516 754.193 762.732 752.368 774.702C751.026 783.504 746.203 792.294 739.837 798.466C733.057 804.918 724.449 809.117 715.192 810.49C705.43 811.906 694.542 810.896 684.658 810.859L631.268 810.932C564.012 810.999 496.645 811.382 429.404 810.428C433.779 809.141 440.741 809.852 445.395 809.819L489.377 809.793C496.579 809.809 504.217 810.568 511.348 809.597C514.373 809.184 520.73 807.687 522.277 804.722C522.89 803.548 522.594 803.027 522.131 801.939C521.181 801.2 520.285 800.833 519.097 800.682C515.878 800.273 512.308 800.734 509.035 800.688C501.145 800.575 438.037 800.94 436.981 800.305C436.85 800.227 436.78 800.077 436.68 799.962C444.458 799.453 452.512 799.878 460.321 799.903L504.833 800L646.605 800.089L688.772 800.107C697.392 800.101 706.896 800.747 715.388 799.203C720.514 798.271 726.641 794.842 730.336 791.239C738.242 783.533 741.359 774.871 741.427 763.951L741.305 488.471L741.442 397.155L741.468 369.259C741.469 363.18 741.718 356.96 741.06 350.913C740.271 343.667 737.71 337.317 732.459 332.087C727.106 326.756 719.539 322.881 712.037 321.872C700.709 320.349 688.176 321.501 676.714 321.485L603.758 321.393L355.828 321.101C356.057 307.022 357.335 292.969 357.445 278.867Z"/>
	<path fill="#9C6B5B" transform="scale(0.292969 0.292969)" d="M429.404 810.428C428.45 810.479 427.495 810.515 426.54 810.537C403.588 810.899 380.528 810.196 357.56 810.208C346.932 810.213 319.688 811.387 310.879 809.441C303.867 807.892 297.017 804.515 291.893 799.443C286.459 794.064 282.309 786.469 281.315 778.837C280.571 773.124 280.864 767.164 280.862 761.413L280.883 734.234L280.876 642.455L279.586 329.299C279.582 316.015 285.236 302.001 294.749 292.598C312.475 275.078 334.857 278.736 357.445 278.867C357.335 292.969 356.057 307.022 355.828 321.101L336.863 321.287C324.313 321.433 312.946 321.814 303.549 331.314C298.275 336.647 294.238 343.872 293.271 351.371C292.606 356.522 292.892 362.007 292.864 367.209L292.871 397.383L292.927 490.119L292.985 681.826C292.984 709.257 292.451 736.785 292.821 764.204C292.958 774.29 295.101 781.986 302.445 789.166C307.211 793.825 313.153 797.103 319.637 798.65C329.052 800.823 340.043 799.762 349.713 799.764L405.935 799.708C415.966 799.682 426.707 798.988 436.68 799.962C436.78 800.077 436.85 800.227 436.981 800.305C438.037 800.94 501.145 800.575 509.035 800.688C512.308 800.734 515.878 800.273 519.097 800.682C520.285 800.833 521.181 801.2 522.131 801.939C522.594 803.027 522.89 803.548 522.277 804.722C520.73 807.687 514.373 809.184 511.348 809.597C504.217 810.568 496.579 809.809 489.377 809.793L445.395 809.819C440.741 809.852 433.779 809.141 429.404 810.428Z"/>
	<path fill="#FEFEFE" transform="scale(0.292969 0.292969)" d="M355.427 334.386L596.595 334.304L673.644 334.491C685.005 334.482 700.288 333.374 711.176 334.487C715.607 334.94 719.53 336.806 722.723 339.934C725.634 342.786 727.91 347.258 728.31 351.322C729.153 359.886 728.492 369.024 728.472 377.661L728.397 430.078L728.438 601.913L728.545 764.798C728.4 770.415 726.883 775.499 723.142 779.81C718.403 785.269 712.997 786.781 706.078 787.096C696.478 787.532 686.703 787.115 677.089 787.093L621.612 787.025L476.58 787.616L370.635 787.818C356.019 787.776 338.182 788.764 323.999 787.482C319.005 787.031 314.548 784.96 310.923 781.483C308.583 779.238 305.754 774.523 305.193 771.322C304.269 766.05 304.869 759.887 304.912 754.499C305.005 744.506 305.046 734.512 305.034 724.518L305.1 601.886C305.273 573.151 305.246 544.416 305.019 515.682L305.256 427.543L305.117 380.464C305.083 371.518 304.422 361.992 305.621 353.128C306.214 348.736 308.863 343.96 311.953 340.76C314.892 337.715 318.863 335.852 322.956 334.957C330.809 333.24 346.777 334.352 355.427 334.386Z"/>
	<path fill="#010303" transform="scale(0.292969 0.292969)" d="M305.1 601.886C314.698 601.95 324.297 601.923 333.895 601.803C339.603 601.758 345.494 601.467 351.181 601.924C375.448 602.914 400 602.14 424.298 602.111L553.077 602.13L674.38 602.038C692.312 601.976 710.554 602.885 728.438 601.913L728.545 764.798C728.4 770.415 726.883 775.499 723.142 779.81C718.403 785.269 712.997 786.781 706.078 787.096C696.478 787.532 686.703 787.115 677.089 787.093L621.612 787.025L476.58 787.616L370.635 787.818C356.019 787.776 338.182 788.764 323.999 787.482C319.005 787.031 314.548 784.96 310.923 781.483C308.583 779.238 305.754 774.523 305.193 771.322C304.269 766.05 304.869 759.887 304.912 754.499C305.005 744.506 305.046 734.512 305.034 724.518L305.1 601.886Z"/>
	<path fill="#309CCD" transform="scale(0.292969 0.292969)" d="M351.181 601.924C375.448 602.914 400 602.14 424.298 602.111L553.077 602.13L674.38 602.038C692.312 601.976 710.554 602.885 728.438 601.913L728.545 764.798C720.336 764.078 711.844 760.869 703.943 758.536C689.555 754.288 675.408 749.815 660.724 746.693L660.254 745.669C660.323 745.15 660.392 744.631 660.445 744.11C661.972 729.092 660.99 713.135 660.969 698.02C660.955 688.596 661.981 674.812 660.295 665.866C659.805 663.268 658.352 660.82 656.661 658.822C653.208 654.742 648.613 653.128 643.407 652.75C628.601 651.675 613.229 652.572 598.342 652.586L510.972 652.623L429.254 652.589C415.757 652.558 401.526 651.591 388.099 652.631C383.317 653.001 379.467 653.935 375.799 657.249C369.934 662.549 368.258 670.066 367.829 677.608C366.686 680.286 367.383 686.218 367.324 689.293C357.604 661.798 352.183 631.059 351.181 601.924Z"/>
	<path fill="#1A7BA0" transform="scale(0.292969 0.292969)" d="M305.1 601.886C314.698 601.95 324.297 601.923 333.895 601.803C339.603 601.758 345.494 601.467 351.181 601.924C352.183 631.059 357.604 661.798 367.324 689.293C367.383 686.218 366.686 680.286 367.829 677.608C368.2 692.704 367.737 707.877 367.623 722.981C367.57 730.07 366.81 737.861 368.082 744.813C368.705 748.218 370.188 752.15 372.688 754.64C375.77 757.709 380.321 759.265 384.559 759.715C396.813 761.017 409.964 759.804 422.335 759.654L483.099 759.515L589.053 759.39L623.12 759.537C629.238 759.584 635.515 759.915 641.621 759.614C647.138 759.342 652.359 757.349 656.064 753.151C658.131 750.809 659.014 748.46 660.254 745.669L660.724 746.693C675.408 749.815 689.555 754.288 703.943 758.536C711.844 760.869 720.336 764.078 728.545 764.798C728.4 770.415 726.883 775.499 723.142 779.81C718.403 785.269 712.997 786.781 706.078 787.096C696.478 787.532 686.703 787.115 677.089 787.093L621.612 787.025L476.58 787.616L370.635 787.818C356.019 787.776 338.182 788.764 323.999 787.482C319.005 787.031 314.548 784.96 310.923 781.483C308.583 779.238 305.754 774.523 305.193 771.322C304.269 766.05 304.869 759.887 304.912 754.499C305.005 744.506 305.046 734.512 305.034 724.518L305.1 601.886Z"/>
	<path fill="#FEFEFE" transform="scale(0.292969 0.292969)" d="M386.552 658.086C399.425 657.41 412.527 657.907 425.421 657.924L493.567 657.961L589.076 657.909C605.686 657.895 622.383 657.524 638.984 657.924C641.868 657.993 646.339 657.958 648.886 659.419C651.763 661.069 653.717 663.714 654.57 666.907C655.833 671.639 655.812 732.119 655.112 740.321C654.893 742.879 654.441 745.767 653.029 747.959C650.305 752.186 645.792 753.559 641.122 754.428C612.43 755.449 583.441 754.577 554.714 754.634L438.198 754.712C428.521 754.719 387.523 756.129 381.852 754.017C379.062 752.978 376.461 750.778 375.251 748.041C374.458 746.248 374.051 744.291 373.875 742.344C372.938 731.964 373.606 721.053 373.555 710.609C373.498 699.056 372.779 687.057 373.527 675.552C373.691 673.038 374.077 670.369 375.004 668.017C376.967 663.035 381.81 660.011 386.552 658.086Z"/>
	<path fill="#010303" transform="scale(0.292969 0.292969)" d="M418.919 682.577C422.904 682.364 426.901 682.131 430.687 683.68C433.294 684.747 435.877 686.798 436.945 689.464C439.607 696.113 440.054 727.514 436.999 733.61C435.308 736.984 430.679 738.39 427.339 739.431C422.783 740.093 418.03 740.448 413.79 738.262C410.571 736.602 408.401 733.673 407.315 730.259C405.862 725.694 406.046 700.98 406.637 695.449C406.865 693.319 407.313 691.089 408.397 689.214C410.755 685.137 414.64 683.765 418.919 682.577Z"/>
	<path fill="#FEFEFE" transform="scale(0.292969 0.292969)" d="M420.404 690.004C421.356 689.933 422.291 689.914 423.243 689.997C424.989 690.149 426.334 690.717 427.393 692.146C429.39 694.838 429.111 722.263 428.34 726.851C427.926 729.31 426.659 730.453 424.678 731.803C424.45 731.825 424.222 731.855 423.993 731.87C421.704 732.012 419.561 731.894 417.882 730.127C415.533 727.655 415.856 699.289 416.628 694.731C417.041 692.297 418.494 691.261 420.404 690.004Z"/>
	<path fill="#010303" transform="scale(0.292969 0.292969)" d="M552.402 683.061L561.91 683.088C566.123 694.087 570.151 705.184 574.786 716.013C574.609 705.186 574.725 694.336 574.702 683.506L583.357 683.514C583.404 688.109 583.88 737.555 583.308 738.997C583.182 739.314 582.904 739.547 582.702 739.821L580.625 739.923L574.013 739.943C570.12 727.367 566.118 714.894 560.754 702.855L560.905 739.614L552.493 739.656L552.402 683.061Z"/>
	<path fill="#010303" transform="scale(0.292969 0.292969)" d="M596.944 683.509L624.794 683.393L624.675 691.341L607.127 691.31L607.133 706.427C612.763 706.403 618.392 706.455 624.02 706.583L623.882 714.958L606.961 714.97L606.928 722.375L606.912 731.281L625.522 731.354L625.512 739.61L596.63 739.756C596.898 721.008 597.003 702.259 596.944 683.509Z"/>
	<path fill="#010303" transform="scale(0.292969 0.292969)" d="M489.296 683.143C499.024 683.043 508.752 683.083 518.478 683.264L518.496 691.395L498.972 691.384L498.973 707.301C504.33 706.99 509.718 707.052 515.083 707.01C515.223 709.454 515.815 712.539 514.805 714.809C513.486 715.825 512.759 715.613 511.125 715.671L499.092 715.964L499.067 739.163L488.556 739.174C489.34 732.494 489.007 725.541 488.999 718.818C488.984 706.921 488.862 695.035 489.296 683.143Z"/>
	<path fill="#010303" transform="scale(0.292969 0.292969)" d="M451.19 683.168C460.494 683.173 469.798 683.243 479.101 683.377L479.065 691.381L460.654 691.414C460.589 696.535 460.7 701.667 460.739 706.789L475.478 706.85L475.471 714.956L469.475 714.948L460.727 715.024L460.565 739.144L450.482 739.105L450.468 705.218C450.471 697.986 449.974 690.303 451.19 683.168Z"/>
	<path fill="#010303" transform="scale(0.292969 0.292969)" d="M528.548 683.083L538.53 683.025L538.566 739.519L528.411 739.559L528.548 683.083Z"/>
	<path fill="#CFC2B8" transform="scale(0.292969 0.292969)" d="M305.1 601.886C305.273 573.151 305.246 544.416 305.019 515.682L305.256 427.543L305.117 380.464C305.083 371.518 304.422 361.992 305.621 353.128C306.214 348.736 308.863 343.96 311.953 340.76C314.892 337.715 318.863 335.852 322.956 334.957C330.809 333.24 346.777 334.352 355.427 334.386C353.344 398.203 352.201 462.048 351.999 525.899L351.35 576.897C351.236 585.185 350.594 593.652 351.181 601.924C345.494 601.467 339.603 601.758 333.895 601.803C324.297 601.923 314.698 601.95 305.1 601.886Z"/>
	<path fill="#010303" transform="scale(0.292969 0.292969)" d="M407.238 453.602C425.914 452.938 441.635 467.452 442.46 486.122C443.286 504.792 428.908 520.638 410.245 521.624C391.354 522.623 375.271 508.029 374.435 489.13C373.6 470.23 388.332 454.274 407.238 453.602Z"/>
	<path fill="#FEFEFE" transform="scale(0.292969 0.292969)" d="M394.256 468.738C397.718 467.53 401.564 468.303 404.293 470.753C407.021 473.203 408.201 476.944 407.371 480.517C406.542 484.089 403.835 486.927 400.306 487.925C395.07 489.405 389.607 486.456 387.97 481.267C386.334 476.078 389.118 470.529 394.256 468.738Z"/>
	<path fill="#010303" transform="scale(0.292969 0.292969)" d="M622.625 454.297C640.985 453.131 656.839 467.015 658.104 485.368C659.37 503.722 645.571 519.65 627.225 521.014C608.738 522.388 592.662 508.461 591.387 489.967C590.112 471.474 604.125 455.473 622.625 454.297Z"/>
	<path fill="#FEFEFE" transform="scale(0.292969 0.292969)" d="M609.785 467.827C613.12 466.765 616.769 467.593 619.32 469.989C621.871 472.386 622.924 475.976 622.072 479.371C621.22 482.766 618.596 485.433 615.216 486.341C610.152 487.701 604.929 484.769 603.454 479.738C601.978 474.707 604.789 469.418 609.785 467.827Z"/>
	<path fill="#010303" transform="scale(0.292969 0.292969)" d="M512.839 528.217C523.441 527.947 545.188 529.932 553.636 536.573C554.824 537.507 555.921 538.806 555.954 540.396C555.992 542.291 554.536 544.081 553.207 545.284C552.114 546.272 550.682 547.093 549.179 547.139C544.586 547.277 538.135 544.21 533.549 543.116C528.488 541.91 523.483 541.272 518.301 540.88C510.232 540.957 502.073 541.735 494.292 543.974C490.603 545.035 486.498 547.022 482.708 547.49C481.37 547.655 479.758 547.539 478.533 546.927C476.769 546.046 474.756 543.728 474.379 541.733C474.122 540.372 474.549 539.277 475.358 538.204C480.514 531.361 504.565 528.664 512.839 528.217Z"/>
	<path fill="#309CCD" transform="scale(0.292969 0.292969)" d="M498.471 112.283C509.131 111.674 519.828 112.038 530.485 112.498C608.532 116.207 683.681 143.2 746.25 189.998C766.492 205.269 785.233 221.047 802.677 239.525C855.794 295.795 895.484 374.181 906.147 450.992C920.908 557.32 896.795 663.252 831.505 749.405C784.455 810.711 720.802 857.231 648.103 883.443C633.914 888.578 618.618 894.266 603.632 896.318L603.918 823.905C630.279 824.04 656.641 824.017 683.001 823.835C695.387 823.773 710.524 825.25 722.441 822.42C732.186 820.106 741.012 814.93 748.281 808.087C755.785 800.99 761.192 791.966 763.91 782.002C766.633 771.675 765.937 759.907 765.911 749.298C765.871 733.108 765.231 716.87 765.637 700.688C768.118 704.147 770.537 707.64 772.542 711.402C775.302 716.581 777.285 722.577 781.125 727.069C785.25 731.892 791.531 734.422 797.765 734.865C804.689 735.423 811.546 733.168 816.787 728.609C821.919 724.137 825.245 717.828 825.527 710.979C826.204 694.491 808.531 667.047 797.634 655.394C811.462 630.209 822.004 585.597 825.078 557.099C832.698 491.555 820.28 425.239 789.46 366.893C782.644 354.143 775.554 341.645 766.471 330.355C766.486 316.928 763.866 304.593 756.244 293.333C746.152 278.424 731.885 270.731 714.545 267.44C718.702 258.921 742.861 221.702 743.513 216.665C743.629 215.77 743.457 215.811 742.985 215.126C737.301 213.699 725.237 216.987 719.033 217.868C714.741 206.952 710.179 195.764 706.867 184.515C697.482 188.12 688.148 192.136 678.901 196.089C672.906 184.569 666.138 173.484 659.883 162.108C650.201 166.844 640.796 172.233 630.885 176.487C625.651 167.009 620.117 157.704 614.894 148.225C607.196 152.006 599.098 154.688 591.444 158.683C587.717 154.969 583.721 151.553 579.672 148.199C576.37 145.227 572.736 142.646 568.841 140.507C567.136 146.332 566.405 152.736 565.363 158.728C562.917 172.611 560.747 186.542 558.853 200.511C544.747 199.609 530.808 197.98 516.639 197.839C459.432 197.067 403.066 211.669 353.428 240.12C346.268 244.159 339.194 248.395 332.575 253.28C325.858 258.237 319.233 264.029 312.137 268.373C308.234 270.762 303.538 271.987 299.438 274.05C287.318 280.149 277.566 292.123 272.709 304.668C271.434 307.961 270.896 312.435 269.107 315.382C265.45 321.405 258.782 328.387 254.495 334.772C236.657 361.342 223.415 386.234 213.376 416.811C192.675 479.865 192.952 552.381 214.852 615.076C220.448 631.095 227.783 645.798 235.427 660.911C232.113 665.002 228.994 669.246 226.081 673.631C218.466 685.114 207.633 698.41 210.879 713.036C212.341 719.625 216.381 725.611 222.203 729.095C228.137 732.645 235.56 733.471 242.196 731.644C257.033 727.558 262.108 709.945 268.916 697.659C268.082 720.973 268.872 744.619 268.964 767.963C269.03 784.81 270.746 797.152 283.475 809.591C289.537 815.514 297.587 819.384 305.845 821.102C318.273 823.688 337.799 822.403 350.92 822.4L425.479 822.327C425.323 848.135 425.327 873.943 425.492 899.75C357.545 885.895 290.188 849.341 239.626 802.179C161.802 729.659 116.219 629.023 113.035 522.695C110.073 417.877 148.407 316.09 219.778 239.266C291.893 161.284 392.306 115.532 498.471 112.283Z"/>
	<path fill="#C92A28" transform="scale(0.292969 0.292969)" d="M243.505 649.533C239.339 642.588 236.146 634.527 233.089 627.035C218.486 591.74 210.877 553.945 210.685 515.749C210.196 460.701 225.173 406.622 253.912 359.67C258.108 352.85 262.484 343.972 268.066 338.336L267.963 354.864L267.994 622.447C262.437 629.049 256.745 635.71 250.79 641.958C248.475 644.605 246.007 647.064 243.505 649.533Z"/>
	<path fill="#EF5844" transform="scale(0.292969 0.292969)" d="M243.505 649.533C239.339 642.588 236.146 634.527 233.089 627.035C218.486 591.74 210.877 553.945 210.685 515.749C210.196 460.701 225.173 406.622 253.912 359.67C258.108 352.85 262.484 343.972 268.066 338.336L267.963 354.864C267.922 355.202 267.892 355.542 267.84 355.879C267.366 358.964 260.29 369.004 258.295 372.497C252.417 382.79 247.384 393.739 242.966 404.734C234.883 424.85 228.365 445.593 224.857 467.014C216.061 520.734 224.236 593.942 250.79 641.958C248.475 644.605 246.007 647.064 243.505 649.533Z"/>
	<path fill="#C92A28" transform="scale(0.292969 0.292969)" d="M335.658 267.442C336.013 267.139 336.374 266.842 336.739 266.551C345.726 259.312 356.723 253.434 366.848 247.947C412.667 223.681 463.682 210.877 515.53 210.631C529.151 210.592 543.25 211.768 556.789 213.315L555.235 224.308L554.567 230.361C582.781 242.783 610.867 256.654 639.679 267.539L357.047 267.096C349.916 267.033 342.784 267.148 335.658 267.442Z"/>
	<path fill="#EF5844" transform="scale(0.292969 0.292969)" d="M335.658 267.442C336.013 267.139 336.374 266.842 336.739 266.551C345.726 259.312 356.723 253.434 366.848 247.947C412.667 223.681 463.682 210.877 515.53 210.631C529.151 210.592 543.25 211.768 556.789 213.315L555.235 224.308C496.234 218.626 449.178 224.004 394.227 247.177C383.679 251.625 367.235 258.713 358.564 265.766C358.043 266.191 357.537 266.635 357.047 267.096C349.916 267.033 342.784 267.148 335.658 267.442Z"/>
	<path fill="#C92A28" transform="scale(0.292969 0.292969)" d="M765.872 375.169C765.862 367.475 765.936 359.783 766.093 352.091C774.395 363.683 780.741 376.177 786.646 389.122C812.074 445.069 820.417 507.278 810.627 567.948C806.674 591.755 798.702 623.617 788.889 645.586L781.125 637.952C776.021 633.243 770.864 628.592 765.655 623.999L765.985 466.107C765.969 435.816 765.175 405.448 765.872 375.169Z"/>
	<path fill="#EF5844" transform="scale(0.292969 0.292969)" d="M765.872 375.169C765.862 367.475 765.936 359.783 766.093 352.091C774.395 363.683 780.741 376.177 786.646 389.122C812.074 445.069 820.417 507.278 810.627 567.948C806.674 591.755 798.702 623.617 788.889 645.586L781.125 637.952C786.177 621.396 791.784 605.041 795.68 588.147C805.611 545.076 806.321 495.146 795.59 452.165C790.13 429.382 782.33 407.224 772.314 386.045C770.84 382.92 768.768 376.909 765.872 375.169Z"/>
	<defs>
		<linearGradient id="gradient_1" gradientUnits="userSpaceOnUse" x1="604.00116" y1="253.50352" x2="660.81097" y2="188.45238">
			<stop offset="0" stop-color="#C9822A"/>
			<stop offset="1" stop-color="#FFCD40"/>
		</linearGradient>
	</defs>
	<path fill="url(#gradient_1)" transform="scale(0.292969 0.292969)" d="M575.883 160.609C579.934 164.526 583.519 168.322 586.592 173.06C592.003 170.186 597.583 167.652 603.133 165.062L610.194 161.601C615.772 171.265 620.64 181.05 625.374 191.155C635.41 185.9 645.665 181.073 656.111 176.689C662.246 188.177 668.011 199.653 673.404 211.514C682.145 207.373 691.251 203.846 699.882 199.534C704.01 209.738 707.706 220.113 710.959 230.629C715.347 229.925 719.861 229.399 724.183 228.372L716.61 240.983C711.5 249.768 706.296 258.499 701 267.172C692.239 267.489 674.466 268.325 666.404 266.671C658.684 265.087 650.706 260.109 643.46 256.957C630.91 251.497 618.183 246.402 605.721 240.746C592.936 234.944 580.375 228.488 567.291 223.386C568.721 202.794 573.112 181.177 575.883 160.609Z"/>
	<path fill="#F0CE87" transform="scale(0.292969 0.292969)" d="M603.133 165.062L610.194 161.601C615.772 171.265 620.64 181.05 625.374 191.155C635.41 185.9 645.665 181.073 656.111 176.689C662.246 188.177 668.011 199.653 673.404 211.514C682.145 207.373 691.251 203.846 699.882 199.534C704.01 209.738 707.706 220.113 710.959 230.629C715.347 229.925 719.861 229.399 724.183 228.372L716.61 240.983C711.105 239.334 706.343 236.957 700.509 236.37C698.112 229.571 696.769 222.365 694.019 215.711C685.61 217.396 675.696 220.057 667.14 219.205C659.555 218.451 635.637 205.885 627.842 201.565C624.512 199.719 620.439 197.816 617.675 195.197C610.796 188.677 605.695 174.021 603.133 165.062Z"/>
	<path fill="#309CCD" transform="scale(0.292969 0.292969)" d="M486.864 822.819C493.637 822.617 500.544 823.184 507.33 823.323C518.583 823.471 529.837 823.544 541.091 823.542L540.956 900.076C523.038 900.712 505.042 900.665 487.113 900.594C486.713 891.23 487.008 881.767 487 872.387L486.864 822.819Z"/>
	<path fill="#115278" transform="scale(0.292969 0.292969)" d="M553.692 824.175C566.353 824.025 579.014 823.995 591.675 824.086C591.778 835.384 592.07 846.663 592.057 857.969C592.05 863.686 592.272 869.582 591.592 875.261C591.455 885.645 592.708 905.565 590.716 914.86C589.93 918.524 588.328 922.123 585.651 924.8C584.138 926.312 582.483 927.319 580.58 928.262C578.106 929.685 575.832 930.627 572.93 930.664C567.997 930.739 563.248 928.793 559.786 925.278C556.846 922.33 554.854 918.571 554.067 914.482C552.363 905.192 553.443 893.258 553.47 883.735L553.692 824.175Z"/>
	<path fill="#1A7BA0" transform="scale(0.292969 0.292969)" d="M561.427 875.414C569.454 875.468 577.481 875.476 585.509 875.437C585.526 878.133 585.466 880.859 585.573 883.552C585.543 891.887 587.24 917.608 582.926 923.643C579.932 923.909 577.074 924.786 574.047 924.807C570.634 924.831 567.436 923.756 565.062 921.237C563.018 919.068 561.841 916.362 561.245 913.469C559.538 905.183 560.958 884.83 561.113 875.491L561.427 875.414Z"/>
	<path fill="#FEFEFE" transform="scale(0.292969 0.292969)" d="M576.463 831.028C581.153 831.046 587.021 830.237 591.549 831.214C591.535 845.852 591.098 860.641 591.592 875.261C591.455 885.645 592.708 905.565 590.716 914.86C589.93 918.524 588.328 922.123 585.651 924.8C584.138 926.312 582.483 927.319 580.58 928.262L580.357 927.767C580.962 926.244 581.983 924.969 582.926 923.643C587.24 917.608 585.543 891.887 585.573 883.552C585.466 880.859 585.526 878.133 585.509 875.437C577.481 875.476 569.454 875.468 561.427 875.414L561.113 875.491L553.788 875.449L553.831 867.104L561.02 867.216C566.101 867.164 571.181 867.143 576.262 867.152C576.18 860.014 574.785 836.014 576.463 831.028Z"/>
	<path fill="#1A7BA0" transform="scale(0.292969 0.292969)" d="M576.463 831.028C581.153 831.046 587.021 830.237 591.549 831.214C589.778 831.341 588.008 831.483 586.239 831.642C585.017 837.389 585.831 844.953 585.915 850.905C585.499 856.369 585.652 861.894 585.728 867.37C582.66 866.956 579.366 867.158 576.262 867.152C576.18 860.014 574.785 836.014 576.463 831.028Z"/>
	<path fill="#CFC2B8" transform="scale(0.292969 0.292969)" d="M585.915 850.905C586.564 860.086 586.73 874.716 585.573 883.552C585.466 880.859 585.526 878.133 585.509 875.437C577.481 875.476 569.454 875.468 561.427 875.414L561.113 875.491L553.788 875.449L553.831 867.104L561.02 867.216C566.101 867.164 571.181 867.143 576.262 867.152C579.366 867.158 582.66 866.956 585.728 867.37C585.652 861.894 585.499 856.369 585.915 850.905Z"/>
	<path fill="#A7AFB2" transform="scale(0.292969 0.292969)" d="M576.262 867.152C579.366 867.158 582.66 866.956 585.728 867.37C577.623 868.082 569.188 867.622 561.041 867.63C561.03 870.056 560.659 873.114 561.427 875.414L561.113 875.491L553.788 875.449L553.831 867.104L561.02 867.216C566.101 867.164 571.181 867.143 576.262 867.152Z"/>
	<path fill="#1A7BA0" transform="scale(0.292969 0.292969)" d="M561.012 830.924C566.162 830.905 571.313 830.939 576.463 831.028C574.785 836.014 576.18 860.014 576.262 867.152C571.181 867.143 566.101 867.164 561.02 867.216L561.012 830.924Z"/>
	<path fill="#115278" transform="scale(0.292969 0.292969)" d="M469.996 821.975C471.826 821.967 472.718 821.718 474.28 822.725C475.284 824.93 474.622 827.637 474.585 830.006L474.92 887.181C474.945 895.641 476.082 906.055 474.247 914.297C473.482 917.734 471.452 921.313 468.922 923.754C466.553 926.04 463.74 927.344 460.616 928.261C458.719 929.086 456.909 929.481 454.832 929.551C450.627 929.693 447.236 928.817 444.199 925.77C441.416 922.977 439.571 919.277 438.644 915.469C436.545 906.845 437.919 885.44 438.12 875.677C437.95 857.792 437.907 839.906 437.991 822.021C448.659 822.176 459.329 822.161 469.996 821.975Z"/>
	<path fill="#309CCD" transform="scale(0.292969 0.292969)" d="M469.926 830.128L474.585 830.006L474.92 887.181C474.945 895.641 476.082 906.055 474.247 914.297C473.482 917.734 471.452 921.313 468.922 923.754C466.553 926.04 463.74 927.344 460.616 928.261L460.452 927.971C460.736 926.559 462.511 925.176 463.535 924.11C461.56 923.391 459.118 923.944 457.015 923.9C454.25 923.841 451.331 923.372 449.359 921.26C447.388 919.149 446.356 916.198 445.865 913.399C444.386 904.97 445.478 885.087 445.527 875.495C445.473 872.636 445.038 869.367 445.879 866.619C447.562 866.613 449.316 866.713 450.989 866.585C453.541 866.722 456.072 866.805 458.629 866.808L469.403 866.871C469.319 854.765 469.474 842.649 469.532 830.543L469.926 830.128Z"/>
	<path fill="#FEFEFE" transform="scale(0.292969 0.292969)" d="M469.926 830.128L474.585 830.006L474.92 887.181C474.945 895.641 476.082 906.055 474.247 914.297C473.482 917.734 471.452 921.313 468.922 923.754C466.553 926.04 463.74 927.344 460.616 928.261L460.452 927.971C460.736 926.559 462.511 925.176 463.535 924.11C463.768 923.894 464.019 923.697 464.233 923.462C466.74 920.71 468.175 916.572 468.799 912.984C470.335 904.161 469.314 885.397 469.311 875.675L458.647 875.661L458.629 866.808L469.403 866.871C469.319 854.765 469.474 842.649 469.532 830.543L469.926 830.128Z"/>
	<path fill="#CFC2B8" transform="scale(0.292969 0.292969)" d="M450.989 866.585C453.541 866.722 456.072 866.805 458.629 866.808L458.647 875.661L445.527 875.495C445.473 872.636 445.038 869.367 445.879 866.619C447.562 866.613 449.316 866.713 450.989 866.585Z"/>
	<path fill="#1A7BA0" transform="scale(0.292969 0.292969)" d="M445.331 829.981C453.53 829.918 461.729 829.967 469.926 830.128L469.532 830.543C469.474 842.649 469.319 854.765 469.403 866.871L458.629 866.808C456.072 866.805 453.541 866.722 450.989 866.585C449.316 866.713 447.562 866.613 445.879 866.619L445.519 866.499C445.029 854.377 445.346 842.119 445.331 829.981Z"/>
	<path fill="#309CCD" transform="scale(0.292969 0.292969)" d="M459.479 830.544L469.532 830.543C469.474 842.649 469.319 854.765 469.403 866.871L458.629 866.808C456.072 866.805 453.541 866.722 450.989 866.585C453.636 866.172 456.457 866.334 459.136 866.316C458.698 854.411 459.238 842.451 459.479 830.544Z"/>
	<path fill="#768390" transform="scale(0.292969 0.292969)" d="M445.519 866.499L445.879 866.619C445.038 869.367 445.473 872.636 445.527 875.495L438.471 875.461L438.477 866.613C440.825 866.601 443.172 866.563 445.519 866.499Z"/>
	<path fill="#768390" transform="scale(0.292969 0.292969)" d="M469.996 821.975C471.826 821.967 472.718 821.718 474.28 822.725C475.284 824.93 474.622 827.637 474.585 830.006L469.926 830.128L469.996 821.975Z"/>
	<path fill="#1A7BA0" transform="scale(0.292969 0.292969)" d="M765.532 642.239C782.374 655.266 795.651 671.937 805.484 690.753C808.221 695.989 811.115 701.587 811.953 707.507C812.377 710.501 811.814 712.704 810.78 715.494C810.151 717.004 809.38 718.187 808.189 719.329C805.653 721.761 802.156 723.448 798.589 723.206C796.178 723.043 793.809 722.032 792.084 720.327C787.093 715.396 784.222 707.14 780.632 701.104C776.303 693.877 771.332 687.055 765.778 680.721C765.691 671.115 765.66 661.508 765.684 651.901C765.57 648.676 765.482 645.467 765.532 642.239Z"/>
	<path fill="#FEFEFE" transform="scale(0.292969 0.292969)" d="M765.532 642.239C782.374 655.266 795.651 671.937 805.484 690.753C808.221 695.989 811.115 701.587 811.953 707.507C812.377 710.501 811.814 712.704 810.78 715.494C807.144 709.702 804.548 703.048 801.303 697.008C792.029 679.741 780.293 664.959 765.684 651.901C765.57 648.676 765.482 645.467 765.532 642.239Z"/>
	<path fill="#1A7BA0" transform="scale(0.292969 0.292969)" d="M266.415 642.721C267.037 641.852 267.328 641.398 268.252 640.823C269.5 650.095 269.039 664.836 269.051 674.543C264.275 681.367 259.444 688.13 255.445 695.451C251.94 701.869 249.455 710.326 244.7 715.824C242.745 718.084 239.97 719.704 236.997 720.166C236.264 720.279 236.237 720.259 235.605 720.252C232.468 719.919 229.917 719.246 227.42 717.207C224.718 715.001 222.953 711.942 222.762 708.422C222.076 695.804 257.058 653.549 266.415 642.721Z"/>
	<path fill="#FEFEFE" transform="scale(0.292969 0.292969)" d="M266.415 642.721C267.703 649.238 230.927 695.837 230.827 708.099C230.791 712.502 233.803 716.405 235.605 720.252C232.468 719.919 229.917 719.246 227.42 717.207C224.718 715.001 222.953 711.942 222.762 708.422C222.076 695.804 257.058 653.549 266.415 642.721Z"/>
</svg>
