<?xml version="1.0" encoding="utf-8" ?>
<svg xmlns="http://www.w3.org/2000/svg" xmlns:xlink="http://www.w3.org/1999/xlink" width="200" height="200">
	<path fill="#FEFEFE" transform="scale(0.195312 0.195312)" d="M0 0L1024 0L1024 1024L0 1024L0 0Z"/>
	<path fill="#010100" transform="scale(0.195312 0.195312)" d="M381.722 10.4351C386.862 12.0626 391.843 14.3709 396.875 16.3132C403.56 18.8655 410.363 21.0973 417.261 23.0011C475.599 39.5892 537.28 40.5018 596.083 25.6469C612.012 21.5013 627.073 15.6873 642.576 10.2939C650.768 14.6533 658.646 21.7837 665.831 27.6653C694.535 51.5091 719.153 79.8783 738.716 111.654C744.175 120.442 748.788 129.76 754.104 138.645C770.328 143.811 786.153 150.453 801.738 157.282C818.521 164.636 835.799 172.429 851.063 182.664C855.372 185.553 859.127 188.637 862.097 192.947C867.18 200.322 871.137 208.853 875.338 216.75C884.918 234.758 893.91 252.717 902.379 271.282C922.334 315.068 940.999 359.43 958.35 404.312C966.394 424.954 973.921 445.797 981.823 466.495C992.043 492.882 1001.77 519.457 1011.01 546.205C1014.96 557.766 1019.77 569.707 1022.17 581.689C1018.39 588.658 1010.96 593.982 1004.83 598.845C976.55 621.201 944.791 638.758 910.819 650.815C899.688 654.676 851.278 668.946 842.02 663.766C836.849 660.872 829.93 639.94 827.312 633.616C823.75 625.01 819.81 616.555 816.341 607.912C808.723 588.528 801.575 568.963 794.902 549.234C795.063 563.645 796.212 578.156 797.11 592.539C798.069 610.296 799.156 628.045 800.368 645.787C804.823 717.802 811.05 789.697 819.044 861.406C821.053 880.309 823.35 899.181 825.934 918.014C827.22 928.003 828.873 938.079 829.687 948.107C829.981 951.721 829.167 955.342 826.948 958.272C822.824 963.718 811.334 966.681 805.06 969.012C758.653 986.251 710.496 996.975 661.623 1004.27C631.779 1008.65 601.746 1011.65 571.623 1013.24C532.741 1015.24 493.781 1015.16 454.908 1013C380.967 1009.15 308.574 998.956 238.085 975.585C227.31 972.013 203.821 965.313 195.887 957.804C195.059 957.02 194.029 955.881 193.834 954.71C192.97 949.538 195.518 939.029 196.252 933.303C207.139 848.974 215.185 764.304 220.376 679.434C222.604 649.821 224.331 620.172 225.557 590.5C226.163 577.244 227.438 563.769 227.108 550.501C226.268 553.337 225.414 556.168 224.545 558.995C220.676 571.516 216.897 584.208 212.531 596.561C208.633 607.589 188.594 659.156 181.123 662.597C177.905 664.079 172.556 663.265 169.112 662.936C147.13 660.834 124.27 654.848 103.745 646.726C72.2 634.529 42.8035 617.375 16.6653 595.912C12.5269 592.577 4.71739 587.331 2.87666 582.156C2.12207 580.034 2.73536 577.409 3.25591 575.287C4.96263 568.332 7.84246 561.338 10.1669 554.549C16.2824 536.86 22.6359 519.255 29.2258 501.737C33.1522 491.084 36.6683 480.294 40.6123 469.646C53.76 434.393 67.3866 399.321 81.4883 364.438C91.6313 339.339 102.249 314.433 113.335 289.736C122.48 269.07 153.267 201.31 166.968 187.688C175.178 179.525 187.578 174.394 197.86 169.292C222.234 157.198 246.684 146.41 272.067 136.604C274.644 129.99 278.383 123.834 281.961 117.726C301.494 84.2135 326.493 54.2028 355.924 28.9354C363.677 22.2934 372.567 15.0191 381.722 10.4351Z"/>
	<path fill="#E46F1E" transform="scale(0.195312 0.195312)" d="M749.041 151.82C757.614 153.927 766.01 157.782 774.177 161.115C797.174 170.501 819.191 180.711 840.884 192.879C833.204 200.473 828.499 208.032 823.837 217.716C810.698 247.056 802.768 279.111 796.401 310.492C783.831 375.587 777.844 441.783 778.528 508.078C778.793 547.682 781.167 587.539 783.729 627.05C785.982 662.473 788.545 697.875 791.417 733.253C795.41 782.864 800.204 832.408 805.795 881.864C808.379 903.952 810.663 926.037 814.278 947.986C751.304 972.992 685.089 987.366 617.779 994.149C604.401 995.497 590.894 997.004 577.459 997.569C575.288 979.841 575.101 960.948 574.069 943.034C571.746 896.654 569.853 850.254 568.391 803.84L566.132 742.237C564.012 677.458 563.106 612.646 563.414 547.833C563.998 472.038 567.76 396.283 568.909 320.499C569.261 297.281 568.637 274.121 568.547 250.912C577.603 268.701 586.503 288.017 591.473 307.422C631.933 290.31 673.729 254.266 701.885 221.067C713.869 206.937 724.56 191.657 735.051 176.407C739.891 168.451 745.383 160.384 749.041 151.82Z"/>
	<path fill="#FBD4A8" transform="scale(0.195312 0.195312)" d="M749.041 151.82C757.614 153.927 766.01 157.782 774.177 161.115C797.174 170.501 819.191 180.711 840.884 192.879C833.204 200.473 828.499 208.032 823.837 217.716C803.646 205.37 781.909 195.355 760.065 186.334C751.779 182.912 743.242 180.047 735.051 176.407C739.891 168.451 745.383 160.384 749.041 151.82Z"/>
	<path fill="#010100" transform="scale(0.195312 0.195312)" d="M746.047 400.133C747.222 402.522 746.317 461.378 745.799 468.477C744.43 487.237 737.678 503.04 723.271 515.381C708.959 527.64 689.941 532.293 671.408 530.715C651.164 528.993 634.812 518.953 621.852 503.625C617.636 498.075 613.909 492.2 612.562 485.239C610.876 476.529 612.035 464.154 612.05 455.019L611.828 400.644C620.889 405.292 630.054 409.351 639.765 412.445C650.274 415.793 661.193 418.33 672.235 418.886C697.242 420.147 724.015 411.56 746.047 400.133Z"/>
	<path fill="#319CC5" transform="scale(0.195312 0.195312)" d="M733.551 416.711C733.473 432.418 735.156 464.954 731.522 478.45C729.816 484.784 726.82 490.234 723.017 495.532C721.408 497.406 719.796 499.299 718.041 501.038C707.408 511.571 692.775 518.473 677.678 518.332C662.975 518.194 647.994 511.781 637.719 501.258C633.057 496.484 627.745 489.823 625.752 483.356C623.862 477.224 625.277 427.448 625.433 417.029C630.734 419.522 636.061 421.954 641.58 423.932C663.585 431.819 690.298 432.635 712.684 425.594C719.925 423.317 726.712 419.959 733.551 416.711Z"/>
	<path fill="#E46F1E" transform="scale(0.195312 0.195312)" d="M186.384 191.235C202.877 182.107 222.114 173.286 239.506 165.972C251.337 160.996 263.333 156.47 274.982 151.065C278.592 158.815 282.304 166.457 286.45 173.936C291.413 181.949 296.317 190.021 301.841 197.664C324.916 229.591 354.414 255.448 386 278.654C400.024 288.958 414.983 299.51 430.508 307.451C438.947 286.714 452.486 256.401 465.764 238.575C462.83 259.509 461.944 281.023 460.522 302.108C457.967 335.498 455.927 368.925 454.406 402.378C447.775 534.893 446.558 667.623 450.757 800.237C452.154 845.162 453.836 890.078 455.803 934.981C456.77 955.814 458.26 976.652 459.062 997.486C393.584 995.659 328.589 985.678 265.58 967.772C252.885 964.079 240.184 959.881 227.721 955.473C221.984 953.444 216.337 951.061 210.538 949.226C214.452 908.449 219.926 867.788 224.194 827.033C230.374 764.752 235.257 702.35 238.839 639.867C243.616 557.546 247.572 473.835 239.522 391.609C236.831 365.822 232.972 340.171 227.956 314.735C221.242 280.229 212.288 245.887 198.908 213.328C195.225 205.525 191.503 198.236 186.384 191.235Z"/>
	<path fill="#FBD4A8" transform="scale(0.195312 0.195312)" d="M186.384 191.235C202.877 182.107 222.114 173.286 239.506 165.972C251.337 160.996 263.333 156.47 274.982 151.065C278.592 158.815 282.304 166.457 286.45 173.936C282.257 177.478 271.536 181.226 266.204 183.653C243.982 194.014 221.545 203.908 198.908 213.328C195.225 205.525 191.503 198.236 186.384 191.235Z"/>
	<path fill="#319CC5" transform="scale(0.195312 0.195312)" d="M512.979 177.837C513.779 178.104 514.506 178.618 515.152 179.157C523.694 186.275 552.693 220.863 554.694 231.049C556.046 237.931 555.851 245.881 556.231 252.927C557.917 284.134 556.752 315.541 555.897 346.763L550.647 537.801C550.149 587.238 550.471 636.68 551.614 686.107C552.568 745.116 554.369 804.109 557.016 863.067C559.042 907.983 559.693 953.039 563.405 997.857L518.875 998.564L473.426 998.451C471.319 975.987 470.785 953.164 469.709 930.624C468.211 899.255 466.476 867.93 465.435 836.537C461.448 733.957 460.741 631.277 463.315 528.652C464.293 459.582 467.101 390.551 471.738 321.63C473.822 288.381 475.69 255.348 479.421 222.234C480.441 213.175 505.504 183.66 512.979 177.837Z"/>
	<path fill="#010100" transform="scale(0.195312 0.195312)" d="M506.838 399.077C518.012 397.093 528.707 404.452 530.846 415.597C532.984 426.742 525.774 437.538 514.659 439.83C507.332 441.342 499.758 438.792 494.837 433.156C489.916 427.521 488.41 419.672 490.895 412.615C493.38 405.559 499.472 400.386 506.838 399.077Z"/>
	<path fill="#0F2D54" transform="scale(0.195312 0.195312)" d="M507.906 407.308C514.654 405.863 521.3 410.145 522.773 416.887C524.246 423.629 519.991 430.293 513.255 431.794C506.48 433.303 499.768 429.018 498.287 422.236C496.805 415.455 501.119 408.761 507.906 407.308Z"/>
	<path fill="#010100" transform="scale(0.195312 0.195312)" d="M506.721 756.186C517.736 754.269 528.223 761.635 530.156 772.648C532.09 783.661 524.739 794.158 513.729 796.108C502.696 798.062 492.171 790.692 490.234 779.656C488.297 768.62 495.682 758.106 506.721 756.186Z"/>
	<path fill="#0F2D54" transform="scale(0.195312 0.195312)" d="M508.609 764.285C515.178 763.378 521.232 767.99 522.1 774.565C522.968 781.14 518.32 787.165 511.74 787.995C505.215 788.817 499.251 784.216 498.39 777.696C497.529 771.176 502.094 765.185 508.609 764.285Z"/>
	<path fill="#010100" transform="scale(0.195312 0.195312)" d="M510.535 258.027C521.406 255.515 532.257 262.28 534.789 273.146C537.321 284.012 530.577 294.876 519.716 297.429C508.825 299.988 497.925 293.222 495.387 282.327C492.848 271.432 499.635 260.545 510.535 258.027Z"/>
	<path fill="#0F2D54" transform="scale(0.195312 0.195312)" d="M512.054 264.525C513.446 264.457 514.891 264.384 516.269 264.646C519.997 265.356 523.631 267.886 525.72 271.027C527.549 273.775 528.406 277.177 527.657 280.434C526.579 285.124 523.263 287.632 519.358 289.933C516.927 290.086 514.346 290.41 511.99 289.658C508.596 288.574 505.718 286.384 504.103 283.168C502.579 280.082 502.345 276.518 503.451 273.259C504.931 268.881 508.046 266.486 512.054 264.525Z"/>
	<path fill="#010100" transform="scale(0.195312 0.195312)" d="M507.525 579.512C518.472 578.869 527.927 587.089 528.814 598.018C529.701 608.948 521.696 618.585 510.789 619.716C503.513 620.472 496.398 617.229 492.195 611.242C487.992 605.254 487.36 597.461 490.542 590.875C493.724 584.288 500.223 579.94 507.525 579.512Z"/>
	<path fill="#0F2D54" transform="scale(0.195312 0.195312)" d="M506.01 587.563C508.954 587.406 511.341 587.388 514.047 588.733C517.125 590.264 519.66 592.998 520.687 596.306C521.588 599.211 521.46 602.393 519.968 605.081C518.03 608.573 514.901 610.006 511.187 610.96C509.235 611.034 507.148 610.922 505.267 610.369C502.112 609.443 499.305 607.099 497.856 604.149C496.485 601.389 496.334 598.181 497.441 595.305C498.919 591.375 502.313 589.148 506.01 587.563Z"/>
	<path fill="#E46F1E" transform="scale(0.195312 0.195312)" d="M833.513 227.328C837.955 217.416 842.251 208.158 849.542 199.954C866.321 229.829 880.94 260.623 894.965 291.855C902.085 307.71 909.407 323.467 916.147 339.491C926.621 364.713 936.745 390.08 946.514 415.584C953.876 434.255 960.774 453.071 967.946 471.813C972.29 483.165 977.452 494.475 980.883 506.134L961.279 522.038C955.691 527.702 947.88 531.901 941.116 536.075C906.617 557.365 863.485 576.779 823.826 585.46C821.22 577.433 817.672 569.598 814.818 561.635C809.783 547.402 805.092 533.049 800.751 518.589C798.162 510.096 795.241 501.303 793.934 492.507C792.259 481.234 794.263 462.107 794.852 450.014C797.9 387.412 805.689 321.504 822.569 261.076C825.751 249.684 829.653 238.503 833.513 227.328Z"/>
	<path fill="#FBD4A8" transform="scale(0.195312 0.195312)" d="M833.513 227.328C837.955 217.416 842.251 208.158 849.542 199.954C866.321 229.829 880.94 260.623 894.965 291.855C902.085 307.71 909.407 323.467 916.147 339.491C926.621 364.713 936.745 390.08 946.514 415.584C953.876 434.255 960.774 453.071 967.946 471.813C972.29 483.165 977.452 494.475 980.883 506.134L961.279 522.038C957.674 514.874 955.45 506.366 952.716 498.774C947.534 484.382 942.137 469.973 936.664 455.691C917.123 404.703 897.468 353.383 874.47 303.843C862.177 277.361 849.837 251.631 833.513 227.328Z"/>
	<path fill="#E46F1E" transform="scale(0.195312 0.195312)" d="M41.977 508.967C48.7902 493.724 54.229 477.657 59.9934 461.988L78.5745 412.976C98.7615 359.553 120.698 306.131 146.215 255.027C155.799 235.834 164.698 215.557 177.517 198.272C183.338 206.152 187.062 216.311 190.867 225.308C195.544 236.64 198.829 248.761 202.043 260.574C218.571 321.331 225.768 388.416 227.916 451.226C228.309 462.711 229.702 477.856 228.37 488.88C226.841 501.533 221.561 514.879 217.884 527.101C212.345 545.514 207.324 564.289 200.546 582.296C156.928 571.551 121.377 559.243 82.6112 536.221C77.8667 533.403 68.6244 528.707 64.895 524.916C57.1647 519.752 49.6055 514.284 41.977 508.967Z"/>
	<path fill="#FBD4A8" transform="scale(0.195312 0.195312)" d="M41.977 508.967C48.7902 493.724 54.229 477.657 59.9934 461.988L78.5745 412.976C98.7615 359.553 120.698 306.131 146.215 255.027C155.799 235.834 164.698 215.557 177.517 198.272C183.338 206.152 187.062 216.311 190.867 225.308C185.649 230.36 178.898 244.981 175.11 251.991C139.208 318.442 110.955 388.355 86.1046 459.605C81.5991 472.581 77.3942 485.659 73.4931 498.829C70.9642 507.224 68.9827 517.192 64.895 524.916C57.1647 519.752 49.6055 514.284 41.977 508.967Z"/>
	<path fill="#319CC5" transform="scale(0.195312 0.195312)" d="M286.444 139.655C305.566 106.381 325.927 78.6196 353.358 51.6371C360.814 44.3025 368.467 36.4085 377.748 31.4232L378.796 38.1104C391.744 87.9311 428.177 127.795 471.829 153.457C481.023 158.862 490.396 163.769 500.524 167.2C466.409 200.757 441.798 241.639 423.935 285.729C412.157 279.002 400.95 270.742 390.02 262.735C348.264 232.145 317.364 199.901 293.109 153.981C291.125 149.15 288.659 144.391 286.444 139.655Z"/>
	<path fill="#56C3E3" transform="scale(0.195312 0.195312)" d="M286.444 139.655C305.566 106.381 325.927 78.6196 353.358 51.6371C360.814 44.3025 368.467 36.4085 377.748 31.4232L378.796 38.1104C373.731 42.5681 368.585 47.1358 364.003 52.0963C357.512 59.1243 351.738 67.076 345.699 74.5049C333.624 89.3573 322.138 103.769 312.182 120.206C308.127 126.901 304.112 133.676 300.393 140.562C298.037 144.926 296.021 150.012 293.109 153.981C291.125 149.15 288.659 144.391 286.444 139.655Z"/>
	<path fill="#319CC5" transform="scale(0.195312 0.195312)" d="M647.648 30.9335C682.321 55.9341 719.288 101.196 738.86 139.182C736.371 144.466 733.506 149.373 730.674 154.466C723.684 165.447 716.825 176.6 709.089 187.076C681.762 224.084 641.097 263.758 600.855 286.311C597.444 278.242 594.29 270.041 590.65 262.073C580.111 238.89 567.057 216.936 551.721 196.606C547.253 190.752 542.656 184.922 537.802 179.381C534.29 175.372 530.351 171.631 527.146 167.373L526.815 166.924C536.145 162.601 545.116 157.927 553.849 152.488C596.257 126.073 634.653 87.11 646.225 37.0865L647.648 30.9335Z"/>
	<path fill="#56C3E3" transform="scale(0.195312 0.195312)" d="M647.648 30.9335C682.321 55.9341 719.288 101.196 738.86 139.182C736.371 144.466 733.506 149.373 730.674 154.466C727.464 150.257 725.073 144.993 722.579 140.312C718.337 132.347 714.148 124.338 709.536 116.577C701.079 102.345 690.385 89.009 680.14 76.0276C669.541 62.5988 658.863 48.6896 646.225 37.0865L647.648 30.9335Z"/>
	<path fill="#155B88" transform="scale(0.195312 0.195312)" d="M392.78 30.6142C457.662 54.2973 528.093 58.2913 595.236 42.0951C607.58 39.1208 619.504 34.7744 631.529 30.7563C626.465 56.0294 612.897 79.5058 595.68 98.4433C570.25 125.147 547.737 139.305 515.052 155.507C499.412 150.435 484.479 143.398 470.612 134.564C434.446 111.05 401.898 73.5227 392.78 30.6142Z"/>
	<path fill="#319CC5" transform="scale(0.195312 0.195312)" d="M37.9467 521.202C43.9808 527.087 51.1234 532.131 57.8959 537.128C67.7765 543.429 77.4497 549.974 87.6755 555.722C121.451 574.372 157.919 587.662 195.775 595.117C191.231 608.987 180.93 637.358 172.63 648.504C131.104 643.314 92.7886 629.015 57.4104 606.772C51.0085 602.747 43.4423 598.659 37.8067 593.622C31.3403 588.48 24.9467 583.246 18.6278 577.924C24.2618 558.779 31.8847 540.206 37.9467 521.202Z"/>
	<path fill="#56C3E3" transform="scale(0.195312 0.195312)" d="M37.9467 521.202C43.9808 527.087 51.1234 532.131 57.8959 537.128C52.9037 551.043 48.3758 565.117 43.2927 578.998C41.5253 583.824 39.9513 588.959 37.8067 593.622C31.3403 588.48 24.9467 583.246 18.6278 577.924C24.2618 558.779 31.8847 540.206 37.9467 521.202Z"/>
	<path fill="#319CC5" transform="scale(0.195312 0.195312)" d="M967.332 536.677C973.915 531.665 980.467 526.613 986.988 521.523C993.077 540.589 1000.81 559.167 1006.44 578.375C1000.64 583.429 994.565 588.08 988.452 592.756C982.511 597.454 975.74 601.39 969.295 605.345C935.987 625.786 889.609 646.417 850.358 649.72C843.694 632.628 835.563 616.076 829.521 598.767C874.685 587.309 930 564.831 967.332 536.677Z"/>
	<path fill="#56C3E3" transform="scale(0.195312 0.195312)" d="M967.332 536.677C973.915 531.665 980.467 526.613 986.988 521.523C993.077 540.589 1000.81 559.167 1006.44 578.375C1000.64 583.429 994.565 588.08 988.452 592.756C981.373 574.153 976.274 554.513 967.332 536.677Z"/>
</svg>
