<?xml version="1.0" encoding="utf-8" ?>
<svg xmlns="http://www.w3.org/2000/svg" xmlns:xlink="http://www.w3.org/1999/xlink" width="200" height="200">
	<path fill="#F6F5EC" transform="scale(0.195312 0.195312)" d="M0 0L1024 0L1024 1024L0 1024L0 0Z"/>
	<path transform="scale(0.195312 0.195312)" d="M416.759 145.201C422.697 144.971 428.695 145.56 434.359 147.407C458.365 155.237 485.148 182.494 504.684 198.861C507.589 197.848 510.503 196.751 513.561 196.317C526.086 194.536 540.319 197.982 550.353 205.762C568.437 219.785 577.18 244.129 579.905 266.071L580.542 266.269C606.509 274.625 631.637 308.235 644.458 331.421C649.197 339.99 652.863 348.954 657.3 357.638C663.734 359.796 670.186 362.827 675.881 366.52C692.336 377.19 696.719 389.201 700.604 407.403C716.883 421.405 732.468 436.399 748.578 450.632C761.166 461.755 774.404 472.204 787.624 482.56C794.876 488.242 802.045 494.182 809.529 499.547C821.347 507.943 833.253 516.215 845.243 524.362C851.811 528.871 858.232 533.785 865.083 537.842C869.931 540.712 874.992 542.098 880.374 543.604C897.001 548.258 907.463 552.688 918.038 567.023C922.947 573.678 927.148 582.016 928.386 590.27C928.832 593.245 928.539 596.549 929.729 599.355C931.864 604.392 936.233 608.642 938.682 613.703C947.329 631.57 956.435 659.249 956.99 679.14C957.172 685.645 956.212 692.036 955.274 698.45C957.913 702.576 961.525 706.026 964.059 710.256C969.765 719.78 969.35 731.623 969.969 742.308C970.349 748.874 970.993 755.52 970.26 762.082C968.961 773.703 965.895 786.316 962.824 797.622C962.079 800.367 961.23 803.166 959.718 805.598C952.278 817.571 933.423 830.518 921.338 837.421C902.995 847.899 883.209 855.172 863.081 861.378C761.856 892.585 658.132 876.492 558.207 849.203C549.687 846.438 540.977 844.233 532.451 841.469C507.851 833.494 483.292 824.462 459.674 813.909C398.148 786.421 345.154 744.056 292.516 702.815C273.837 708.435 255.752 716.141 237.199 722.193C227.653 718.708 217.293 711.852 208.356 706.739C191.562 697.086 174.965 687.092 158.576 676.765C129.603 658.76 101.333 640.236 76.0923 617.15C72.2549 613.64 67.033 609.758 64.2058 605.418C60.8353 600.244 59.7297 591.962 58.481 585.925C51.3798 551.591 47.8287 503.104 56.2001 468.789C59.3172 456.012 65.0287 443.822 76.5713 436.791C71.8783 409.257 82.1465 366.297 90.4283 339.547C86.041 332.438 82.8325 325.928 82.2381 317.449C81.3497 304.776 86.197 295.94 94.1927 286.625C96.6123 273.902 98.432 261.071 99.6458 248.177C101.082 233.036 100.209 215.539 105.88 201.227C110.416 189.782 121.03 182.78 131.948 178.176C145.008 172.668 160.032 170.275 174.143 171.692C204.227 174.713 245.839 195.463 273.897 207.658C287.692 213.654 301.884 218.946 315.848 224.559C322.29 211.806 330.227 199.866 339.493 188.99C359.183 165.751 385.842 147.754 416.759 145.201Z"/>
	<path fill="#BF4325" transform="scale(0.195312 0.195312)" d="M176.595 428.734C182.981 434.24 189.001 440.257 195.176 446.004C205.157 455.215 215.215 464.344 225.348 473.387C261.598 505.414 301.16 537.357 340.608 565.39C355.55 576.008 370.753 587.316 386.84 596.137C397.424 601.941 409.056 606.619 421.169 603.005C436.226 598.513 445.373 586.846 452.589 573.562C457.445 573.878 460.844 573.29 465.077 570.856C465.868 573.765 466.816 576.6 468.291 579.243C470.917 583.947 475.002 587.895 480.319 589.292C486.473 590.909 491.188 588.237 496.334 585.258C496.907 590.898 498.211 595.533 502.274 599.762C506.286 603.938 512.223 606.513 518.01 606.606C522.532 606.679 526.663 605.011 529.909 601.896C531.639 606.494 533.253 611.167 536.14 615.196C539.609 620.039 544.895 623.648 550.837 624.554C557.761 625.61 562.599 622.684 567.973 618.852C569.348 624.581 570.634 629.614 574.81 634.052C579.031 638.538 585.205 641.428 591.401 641.411C597.506 641.394 601.185 638.497 605.223 634.374C606.552 639.218 607.754 643.508 611.087 647.441C614.997 652.055 621.059 655.269 627.138 655.532C633.659 655.814 637.932 653 642.507 648.737C643.652 653.796 645.554 658.063 649.424 661.658C654.006 665.914 660.561 668.308 666.814 667.924C673.504 667.514 677.199 663.944 681.361 659.197C683.09 662.88 684.76 666.204 687.598 669.194C692.285 674.12 698.798 676.894 705.598 676.859C713.592 676.81 718.369 672.538 723.589 667.142C725.855 670.364 728.069 673.549 731.082 676.134C736.274 680.54 743.037 682.643 749.812 681.958C758.735 681.009 764.063 674.795 769.338 668.293C771.46 672.038 773.439 675.14 777.086 677.586C782.132 680.969 788.707 681.702 794.547 680.328C802.174 678.534 807.51 673.739 811.433 667.163C813.623 669.622 815.827 671.862 818.755 673.47C823.459 676.053 828.977 676.338 834.069 674.795C842.911 672.115 848.502 664.511 852.762 656.805C856.378 659.874 860.266 662.067 865.036 662.692C870.431 663.398 875.718 661.816 879.995 658.494C885.256 654.409 888.005 648.983 888.813 642.481C894.298 644.342 899.177 645.427 904.699 642.772C911.637 639.436 916.391 631.499 917.022 623.947C917.529 617.868 916.244 615.173 918.513 609.031C921.437 612.036 923.802 615.131 926.106 618.626C934.738 633.568 944.194 668.73 943.771 685.949C943.334 703.707 934.895 721.836 922.018 733.989C913.666 741.872 903.159 747.783 892.925 752.905C848.222 775.281 796.954 781.694 747.458 780.426C629.602 777.409 513.217 739.397 411.279 681.143C367.824 656.309 326.495 627.362 284.324 600.432C265.982 588.91 247.513 577.594 228.918 566.486C223.752 563.357 204.754 552.994 201.411 549.135C197.598 544.734 195.121 536.39 192.81 530.967C178.225 496.735 172.686 465.946 176.595 428.734Z"/>
	<path fill="#F1DD78" transform="scale(0.195312 0.195312)" d="M380.434 253.64C394.804 239.376 472.043 203.646 491.501 203.082C492.228 203.061 492.877 203.164 493.59 203.29L494.123 203.9C491.808 206.883 487.743 208.796 484.717 211.051C474.722 218.501 468.458 229.481 470.061 242.173C470.734 247.497 472.687 253.625 475.552 258.168C478.555 255.708 481.094 252.167 483.766 249.303C489.132 243.486 495.152 238.308 501.705 233.871C511.578 236.599 520.693 240.621 529.795 245.242C541.822 251.314 551.138 258.838 561.148 267.717C548.947 267.172 539.004 268.541 529.598 277.071C520.553 285.272 515.662 296.785 514.317 308.741C499.8 297.862 480.598 289.424 462.079 292.007C448.391 293.915 435.509 302.434 427.359 313.438C413.119 332.664 409.596 356.789 413.119 379.994C417.989 412.062 434.379 441.666 460.788 460.93C476.65 472.501 495.978 479.021 515.7 475.961C530.892 473.717 544.551 465.475 553.617 453.08C566.209 435.684 565.463 411.57 562.702 391.329C576.057 405.555 593.865 421.225 614.539 422.029C623.023 422.359 631.694 419.695 637.989 413.876C646.959 405.585 648.907 393.508 649.247 381.865C649.301 380.236 649.328 378.607 649.326 376.977C653.091 381.924 658.074 386.262 662.488 390.647L682.872 411.036C697.972 425.955 713.274 440.897 729.201 454.94C746.198 469.926 764.179 484.103 782.299 497.698C795.34 507.4 808.499 516.941 821.773 526.32C833.343 534.456 845.082 542.404 856.196 551.163C864.045 557.349 871.868 563.966 879.05 570.923C882.915 574.667 886.418 578.981 890.467 582.498C886.512 594.902 879.361 600.941 868.049 606.778C816.424 633.414 758.51 633.111 702.678 622.589C683.932 619.093 665.413 614.473 647.221 608.755C610.355 597.137 574.626 582.181 540.477 564.071C530.036 558.588 519.616 553.082 509.625 546.801C498.506 539.826 487.635 532.462 477.031 524.725C471.53 520.746 466.22 516.357 460.606 512.56C460.109 499.295 455.895 486.379 445.95 477.191C434.62 466.723 418.821 460.295 405.455 452.79C388.367 443.195 371.052 432.919 355.115 421.513C353.179 420.275 352.167 419.093 351.027 417.104C340.332 398.448 336.051 367.626 341.677 346.941C347.898 324.067 366.092 301.229 386.598 289.466C385.491 299.725 385.871 309.09 386.909 319.323C388.358 328.41 389.343 339.757 395.182 347.241C396.208 348.556 397.13 349.31 398.787 349.504C400.069 348.577 400.378 347.363 400.654 345.879C401.496 341.338 401.234 336.379 401.455 331.762C401.78 325.083 402.799 318.455 404.496 311.985C407.377 300.716 411.51 290.611 419.286 281.813C432.383 266.993 452.841 262.143 471.823 261.076C462.075 250.91 444.725 243.091 430.598 242.519C417.939 242.006 408.911 247.246 399.939 255.579C395.979 257.278 393.73 262.766 391.738 266.347C387.823 267.156 368.614 267.938 365.196 267.31C368.788 263.551 378.392 257.641 380.434 253.64Z"/>
	<path fill="#F3BA52" transform="scale(0.195312 0.195312)" d="M355.115 421.513C353.179 420.275 352.167 419.093 351.027 417.104C340.332 398.448 336.051 367.626 341.677 346.941C347.898 324.067 366.092 301.229 386.598 289.466C385.491 299.725 385.871 309.09 386.909 319.323C373.149 328.75 360.382 364.579 357.318 380.936C355.413 391.107 352.795 412.201 355.115 421.513Z"/>
	<path fill="#F3BA52" transform="scale(0.195312 0.195312)" d="M501.705 233.871C511.578 236.599 520.693 240.621 529.795 245.242C525.387 249.058 512.778 260.668 507.719 260.859C507.44 260.87 507.162 260.892 506.884 260.902C504.81 260.976 476.566 259.101 476.372 259.041L475.552 258.168C478.555 255.708 481.094 252.167 483.766 249.303C489.132 243.486 495.152 238.308 501.705 233.871Z"/>
	<path transform="scale(0.195312 0.195312)" d="M567.719 531.764C569.928 528.526 570.826 524.787 572.352 521.227C577.789 508.538 607.033 479.78 618.579 471.48C626.05 466.11 634.431 461.818 642.993 458.483C658.634 452.391 675.261 450.809 691.896 452.208C696.512 452.596 701.811 453.133 706.088 454.995C707.858 455.199 708.58 455.1 710.002 456.226C711.93 460.612 708.885 466.199 711.679 470.048C713.046 471.127 714.5 471.06 716.162 471.178L716.46 471.208L716.71 471.677C710.953 474.707 697.653 477.309 690.445 479.941C663.476 489.791 639.861 504.686 618.475 523.762C609.721 531.571 593.274 551.301 581.195 551.71C572.143 552.016 564.602 547.247 558.213 541.351C549.799 533.586 539.942 521.928 539.512 509.83L540.176 509.646L540.134 508.88L540.446 508.921C541.984 514.123 545.185 519.068 548.827 523.057C554.268 529.017 559.732 531.351 567.719 531.764Z"/>
	<path fill="#F6F5EC" transform="scale(0.195312 0.195312)" d="M586.615 519.024C590.392 509.338 596.146 501.575 603.386 494.176C633.24 463.666 664.903 455.352 706.088 454.995C707.858 455.199 708.58 455.1 710.002 456.226C711.93 460.612 708.885 466.199 711.679 470.048C705.691 470.073 699.708 469.798 693.739 470.403C663.291 473.491 638.486 489.846 613.323 505.732C608.903 508.522 591.317 520.638 586.615 519.024Z"/>
	<path fill="#B3B3B0" transform="scale(0.195312 0.195312)" d="M586.615 519.024C591.317 520.638 608.903 508.522 613.323 505.732C638.486 489.846 663.291 473.491 693.739 470.403C699.708 469.798 705.691 470.073 711.679 470.048C713.046 471.127 714.5 471.06 716.162 471.178C675.647 476.244 650.819 487.628 619.021 513.393C610.594 520.221 598.004 534.861 589.456 539.378C588.006 540.144 586.044 540.836 584.607 539.674C583.236 538.566 582.949 536.844 582.864 535.174C582.615 530.261 584.317 523.339 586.615 519.024Z"/>
	<path transform="scale(0.195312 0.195312)" d="M559.65 450.291L560.412 451.255C560.98 454.204 560.454 456.45 559.326 459.212C554.244 471.65 542.862 483.389 530.438 488.518C515.74 494.587 500.514 493.018 486.079 487.025C484.496 486.23 483.088 485.099 481.661 484.053C494.614 487.505 507.694 489.177 520.829 485.63C541.54 480.036 549.398 467.916 559.65 450.291Z"/>
	<path transform="scale(0.195312 0.195312)" d="M552.883 483.546C553.096 483.677 553.048 484.018 553.109 484.26C549.608 490.393 544.759 495.814 538.485 499.185C524.19 506.865 509.246 503.542 494.608 499.039L489.157 496.575C495.43 497.608 501.668 498.575 508.039 498.747C524.049 499.178 540.965 494.86 552.883 483.546Z"/>
	<path transform="scale(0.195312 0.195312)" d="M653.772 414.381C654.144 416.519 652.844 418.86 651.928 420.735C649.059 426.61 644.48 430.508 638.246 432.52C629.926 435.205 621.53 433.987 613.831 430.124C613.038 429.657 612.55 429.264 611.962 428.555C614.426 427.616 621.363 430.196 624.848 429.812C626.161 429.668 627.487 429.503 628.79 429.291C639.813 427.501 647.183 423.528 653.772 414.381Z"/>
	<path fill="#C19157" transform="scale(0.195312 0.195312)" d="M66.5192 501.827C69.643 505.101 72.164 509.233 74.9645 512.809C78.881 517.81 83.5404 522.569 88.1647 526.933C111.625 549.074 140.343 566.019 167.336 583.484L264.377 645.584C289.046 661.071 312.45 678.283 336.4 694.813C361.042 711.761 386.237 727.889 411.945 743.171C478.864 782.348 552.662 806.281 628.445 821.107C675.889 830.389 723.009 835.912 771.429 834.4C823.768 832.565 874.881 818.064 920.385 792.139C932.976 784.81 945.381 776.563 955.393 765.891C953.252 777.59 950.305 789.181 948.478 800.927C934.476 814.913 913.402 825.494 895.432 833.496C886.198 837.486 876.783 841.04 867.217 844.148C835.821 854.383 803.189 860.335 770.202 861.842C672.434 866.841 547.952 837.52 459.172 796.192C433.35 784.171 407.843 769.478 384.379 753.362C347.552 728.068 312.898 699.666 277.579 672.345C266.763 663.978 250.077 648.44 238.627 642.705C238.426 642.605 238.222 642.509 238.02 642.411C234.053 659.413 235.223 687.203 235.107 705.286C211.571 692.293 187.458 677.281 165.01 662.498C164.302 657.537 162.039 640.907 159.627 637.409L158.858 637.567C156.082 642.793 156.661 651.408 156.489 657.285C137.549 646.193 118.166 633.931 101.736 619.321C101.507 614.919 101.71 599.017 99.4995 596.145L98.7781 596.671C96.452 602.137 95.877 608.283 95.0211 614.116C89.9623 609.409 83.7991 605.624 79.0697 600.639C74.7797 596.117 74.1499 587.625 73.0401 581.701C68.1693 555.703 65.4043 528.283 66.5192 501.827Z"/>
	<path fill="#EE7A18" transform="scale(0.195312 0.195312)" d="M115.587 233.415C118.384 236.129 128.687 255.234 132.149 260.466C138.677 270.332 146.216 279.166 154.135 287.931C181.302 318.004 210.11 347.692 241.377 373.588C261.22 390.023 282.21 404.701 303.295 419.456C322.203 432.687 340.937 445.614 360.701 457.555C367.83 461.917 375.002 466.211 382.215 470.434C396.592 478.668 414.326 487.001 425.328 499.667C431.54 506.819 433.323 516.295 432.61 525.511C431.574 538.915 425.182 550.989 415.024 559.663C412.802 561.312 410.401 562.828 407.84 563.9C401.019 566.755 394.422 565.772 387.768 563.158C372.667 557.226 358.164 546.992 344.629 538.154C290.287 501.9 239.486 460.6 192.903 414.802C169.98 392.533 147.72 369.667 127.795 344.635C119.973 334.809 110.489 323.623 105.519 312.001L105.143 311.111C104.058 308.606 104.528 305.447 104.817 302.781C106.204 290.002 109.411 277.236 111.352 264.497C112.902 254.32 113.215 243.384 115.587 233.415Z"/>
	<path fill="#CBD7DC" transform="scale(0.195312 0.195312)" d="M68.236 471.394C69.5711 472.987 70.3491 475.597 71.4616 477.439C83.0595 496.641 110.184 515.787 128.192 528.921C152.4 546.577 177.846 562.626 203.39 578.264C216.175 586.091 229.177 593.56 241.775 601.691L344.697 667.566C379.046 689.283 413.476 710.953 450.113 728.672C500.077 753.043 552.572 771.839 606.65 784.722C637.16 792.173 668.169 797.405 699.434 800.379C754.043 805.977 805.481 805.616 858.734 790.718C878.037 785.318 897.091 778.259 914.207 767.667C925.635 760.594 938.865 750.263 944.539 737.691C947.095 732.027 948.408 725.919 949.832 719.898C951.899 722.214 953.878 724.414 955.454 727.105C955.784 733.111 955.302 739.133 954.895 745.123C954.531 749.759 954.053 754.275 953.264 758.863C945.308 768.713 932.925 777.237 922.24 783.986C908.7 792.538 893.929 799.161 879.046 804.98C791.36 839.26 693.64 829.25 603.865 808.893C553.556 797.485 503.27 781.681 456.817 759.062C426.61 744.354 397.119 726.951 369.073 708.48C355.274 699.393 341.896 689.707 328.338 680.276C313.272 669.796 297.747 659.518 282.324 649.562C267.002 639.67 251.309 630.343 235.828 620.702C214.176 607.167 192.648 593.435 171.247 579.506C152.286 567.24 133.293 554.946 115.263 541.328C100.41 530.109 83.7543 516.962 73.8304 501.04C68.0396 491.75 65.791 482.15 68.236 471.394Z"/>
	<path fill="#F6F5EC" transform="scale(0.195312 0.195312)" d="M464.099 296.145C478.806 294.963 492.797 299.543 504.928 307.808C532.234 326.411 551.223 358.17 557.111 390.495C560.668 410.02 560.406 434.121 548.527 450.978C540.215 462.774 527.332 469.082 513.388 471.438C495.145 472.256 480.298 467.985 465.319 457.343C440.472 439.386 423.747 412.321 418.8 382.066C415.054 359.955 417.266 335.758 430.673 317.064C438.919 305.566 450.099 298.433 464.099 296.145Z"/>
	<path transform="scale(0.195312 0.195312)" d="M488.32 350.674C494.974 350.694 501.069 352.466 506.571 356.256C518.394 364.399 525.002 378.439 527.517 392.219C529.602 403.635 528.98 417.017 521.931 426.747C517.717 432.564 512.109 434.862 505.301 436.056C498.175 435.646 492.306 433.641 486.523 429.458C474.618 420.848 466.85 405.511 464.709 391.194C463.158 380.823 464.063 368.387 470.684 359.792C475.195 353.937 481.183 351.478 488.32 350.674Z"/>
	<path fill="#F6F5EC" transform="scale(0.195312 0.195312)" d="M479.723 358.598C482.763 358.705 485.159 359.314 487.661 361.121C491.582 363.954 494.061 368.631 494.79 373.358C495.523 378.109 494.619 383.455 491.716 387.368C489.205 390.751 486.671 391.757 482.621 392.408C480.625 392.452 479.049 392.186 477.221 391.34C472.847 389.315 469.832 385.704 468.336 381.131C466.715 376.177 467.545 370.799 470.063 366.291C472.328 362.237 475.307 359.887 479.723 358.598Z"/>
	<defs>
		<linearGradient id="gradient_0" gradientUnits="userSpaceOnUse" x1="313.88031" y1="339.25168" x2="219.97827" y2="462.69897">
			<stop offset="0" stop-color="#FB8818"/>
			<stop offset="1" stop-color="#D95A25"/>
		</linearGradient>
	</defs>
	<path fill="url(#gradient_0)" transform="scale(0.195312 0.195312)" d="M161.103 187.876C193.32 183.582 257.379 215.774 287.525 229.748C297.033 234.156 306.903 237.971 316.31 242.53L314.477 248.429L311.955 257.018C297.98 252.249 284.533 244.32 271.221 237.843C240.136 222.719 208.227 208.502 174.277 201.397C173.506 200.36 172.727 199.253 171.84 198.307C167.724 193.915 162.284 193.55 156.627 193.234C149.453 194.222 141.926 196.648 137.426 202.744C134.296 206.984 133.493 212.359 134.437 217.466C137.152 232.15 155.448 255.092 165.209 266.64C215.347 325.953 275.383 376.085 340.081 418.826C354.675 428.467 369.549 438.183 384.727 446.867C393.233 451.763 401.769 456.607 410.334 461.4C420.728 467.103 432.97 472.3 441.592 480.538C448.24 487.016 452.741 495.378 454.489 504.494C456.564 514.782 454.867 525.355 451.426 535.165C449.981 543.911 442.391 556.285 437.375 563.835C430.564 574.087 421.542 583.125 409.024 585.538C389.474 589.307 364.043 571.157 348.465 560.462C329.626 547.334 311.165 533.671 293.107 519.488C275.321 506.053 257.888 492.158 240.825 477.816C211.316 452.85 99.5288 349.067 94.2271 316.155C93.2206 309.907 96.0049 304.74 99.4605 299.821C99.4344 301.336 99.4272 302.852 99.4391 304.367C99.4745 307.686 99.94 310.858 101.07 313.998C104.382 323.197 111.671 332.266 117.57 340.042C124.179 348.754 130.835 357.481 138.029 365.722C159.522 390.341 183.736 412.395 207.058 435.225C225.577 453.355 245.708 470.18 265.958 486.35C293.983 509.083 323.238 530.255 353.591 549.772C365.981 557.728 384.345 572.227 399.456 571.928C409.256 571.734 417.567 566.88 424.161 559.877C433.747 549.699 440.323 534.91 439.74 520.764C439.232 508.458 433.675 498.186 424.742 489.956C413.514 479.611 399.26 472.222 385.973 464.899C373.893 458.241 361.796 451.671 350.008 444.505C336.185 436.102 322.934 426.806 309.589 417.673C277.872 395.964 246.678 373.267 218.514 347.024C189.128 319.642 160.936 290.048 137.313 257.502C131.988 250.165 126.331 242.712 122.45 234.489C120.137 229.588 118.427 224.174 118.329 218.714C118.211 212.193 120.269 206.771 124.759 202.035C133.924 192.368 148.091 188.117 161.103 187.876Z"/>
	<path fill="#F3BA52" transform="scale(0.195312 0.195312)" d="M161.103 187.876C193.32 183.582 257.379 215.774 287.525 229.748C297.033 234.156 306.903 237.971 316.31 242.53L314.477 248.429L311.955 257.018C297.98 252.249 284.533 244.32 271.221 237.843C240.136 222.719 208.227 208.502 174.277 201.397C173.506 200.36 172.727 199.253 171.84 198.307C167.724 193.915 162.284 193.55 156.627 193.234C149.453 194.222 141.926 196.648 137.426 202.744C134.296 206.984 133.493 212.359 134.437 217.466C137.152 232.15 155.448 255.092 165.209 266.64C215.347 325.953 275.383 376.085 340.081 418.826C354.675 428.467 369.549 438.183 384.727 446.867C393.233 451.763 401.769 456.607 410.334 461.4C420.728 467.103 432.97 472.3 441.592 480.538C448.24 487.016 452.741 495.378 454.489 504.494C456.564 514.782 454.867 525.355 451.426 535.165C449.886 532.525 450.32 526.902 449.894 523.716C448.226 511.26 443.495 497.624 434.81 488.297C424.934 477.691 410.35 470.363 397.942 463.098C382.253 453.912 366.23 445.141 350.722 435.67C326.324 420.769 300.041 402.447 277.436 384.951C269.036 378.448 260.938 371.583 252.682 364.902C243.894 357.79 234.932 350.836 226.535 343.26C216.335 334.057 207.104 323.956 197.442 314.218C177.626 294.247 127.336 245.29 124.405 218.675C123.553 210.942 125.992 207.089 130.672 201.376C130.339 200.491 130.168 199.966 130.275 199.019C138.15 190.599 150.1 191.428 160.139 188.198C160.461 188.094 160.782 187.983 161.103 187.876Z"/>
	<path fill="#EE7A18" transform="scale(0.195312 0.195312)" d="M156.627 193.234C162.245 190.183 183.607 194.622 189.99 196.512C209.804 202.381 228.185 210.775 247.098 218.948C269.669 228.519 292.13 238.346 314.477 248.429L311.955 257.018C297.98 252.249 284.533 244.32 271.221 237.843C240.136 222.719 208.227 208.502 174.277 201.397C173.506 200.36 172.727 199.253 171.84 198.307C167.724 193.915 162.284 193.55 156.627 193.234Z"/>
	<path fill="#76A492" transform="scale(0.195312 0.195312)" d="M174.776 209.209C196.73 208.138 222.952 221.64 242.521 230.724C252.255 235.243 262.095 239.528 271.745 244.224C284.737 250.546 297.527 257.285 310.995 262.548C308.528 279.372 307.009 301.958 313.691 317.742C303.151 331.176 296.16 347.196 296.036 364.487C295.999 369.731 297.359 375.291 296.849 380.457C295.869 380.538 294.994 379.537 294.211 378.952C278.73 367.512 263.068 355.709 248.521 343.103C228.707 325.935 150.244 252.394 149.105 228.657C148.899 224.354 150.368 220.361 153.331 217.231C158.93 211.315 166.982 209.557 174.776 209.209Z"/>
	<path fill="#EE7A18" transform="scale(0.195312 0.195312)" d="M460.587 519.131C551.624 587.768 691.313 648.489 807.639 632.052C834.136 628.307 871.036 618.843 887.684 596.696C891.273 591.921 895.266 585.996 894.417 579.735C893.462 572.694 886.586 566.672 881.079 562.759C879.192 561.395 877.218 560.155 875.169 559.047C885.271 558.472 892.518 561.58 900.031 568.217C907.959 575.221 914.092 584.899 914.628 595.685C914.939 601.935 913.516 607.78 910.13 613.081C894.902 635.291 854.181 649.239 828.638 655.587C743.664 676.705 653.146 650.247 575.355 615.807C567.21 612.201 559.272 608.123 551.228 604.301C530.898 594.641 510.431 584.934 490.787 573.923C477.889 566.694 465.591 558.505 452.934 550.879C455.828 542.875 458.219 535.078 459.45 526.636L460.587 519.131Z"/>
	<path fill="#F3BA52" transform="scale(0.195312 0.195312)" d="M460.587 519.131C551.624 587.768 691.313 648.489 807.639 632.052C834.136 628.307 871.036 618.843 887.684 596.696C891.273 591.921 895.266 585.996 894.417 579.735C893.462 572.694 886.586 566.672 881.079 562.759C879.192 561.395 877.218 560.155 875.169 559.047C885.271 558.472 892.518 561.58 900.031 568.217C907.959 575.221 914.092 584.899 914.628 595.685C914.939 601.935 913.516 607.78 910.13 613.081C905.575 611.131 898.676 610.346 893.768 611.206C883.735 612.964 870.771 619.837 860.977 623.835C847.955 629.152 834.85 633.066 821.019 635.641C805.364 638.555 789.551 639.036 773.66 639.043C711.896 639.068 654.353 625.109 597.225 602.378C586.064 597.938 574.833 593.583 563.976 588.432C537.412 575.827 512.136 559.92 487.347 544.191C478.084 538.314 468.49 532.847 459.45 526.636L460.587 519.131Z"/>
	<path fill="#CBD7DC" transform="scale(0.195312 0.195312)" d="M81.3752 451.879C81.6545 451.997 81.9849 452.032 82.213 452.231C83.1067 453.012 90.3187 468.435 92.507 471.699C102.889 487.187 120.275 502.082 135.544 512.908C150.271 523.379 165.229 533.521 180.409 543.324C195.537 552.92 211.05 561.766 226.391 570.994C237.674 577.78 248.803 584.866 260.009 591.784C293.219 612.556 326.121 633.816 358.706 655.557C387.987 674.744 418.851 692.967 450.284 708.412C563.209 763.9 713.028 804.108 838.458 777.789C868.622 771.46 906.093 757.696 928.222 735.664C934.501 729.413 939.194 722.029 944.004 714.651C943.451 721.699 942.273 728.051 939.648 734.631C926.909 758.535 901.908 770.132 877.551 779.065C751.414 825.325 579.195 783.576 461.173 728.91C443.294 720.629 425.786 710.872 408.7 701.053C362.626 674.574 318.824 644.618 273.986 616.177C223.255 583.998 170.564 554.455 122.409 518.423C107.359 507.161 76.6522 484.881 70.2286 467.415C70.3845 466.749 70.5467 466.094 70.7334 465.436C72.5591 459.005 75.6132 455.142 81.3752 451.879Z"/>
	<path fill="#F6F5EC" transform="scale(0.195312 0.195312)" d="M550.159 273.117C550.545 273.077 550.931 273.051 551.318 273.023C567.844 271.832 583.18 279.559 595.36 290.136C618.388 310.134 642.892 347.339 644.868 378.443C645.527 388.817 643.794 400.567 636.541 408.538C630.537 415.137 622.615 417.105 614.078 417.477C595.975 415.163 581.396 404.175 569.212 391.195C565.843 387.605 561.971 383.611 559.706 379.187C556.989 373.878 555.939 367.282 553.729 361.655C546.57 343.424 533.999 323.679 518.191 311.796C520.033 303.827 522.293 295.877 526.744 288.924C532.437 280.031 539.995 275.352 550.159 273.117Z"/>
	<path transform="scale(0.195312 0.195312)" d="M583.272 318.105C587.637 317.99 591.126 318.529 595.07 320.626C605.443 326.143 613.816 338.92 617.195 349.918C619.681 358.014 621.125 369.38 616.761 377.071C614.245 381.506 610.59 383.258 605.872 384.494C600.559 384.682 595.762 383.058 591.237 380.382C580.806 374.215 573.68 362.681 570.73 351.121C568.611 342.818 568.587 332.712 573.274 325.232C575.728 321.317 578.855 319.212 583.272 318.105Z"/>
	<path fill="#F6F5EC" transform="scale(0.195312 0.195312)" d="M582.555 322.146C584.582 322.295 586.576 322.469 588.388 323.465C592.443 325.695 595.087 329.765 596.159 334.197C597.061 337.926 596.899 342.08 594.779 345.38C592.758 348.525 590.301 349.429 586.777 350.164C584.861 349.862 582.886 349.611 581.181 348.627C577.187 346.323 574.169 342.245 573.075 337.774C572.236 334.349 572.491 330.467 574.369 327.412C576.304 324.265 579.051 322.882 582.555 322.146Z"/>
	<path fill="#F1DD78" transform="scale(0.195312 0.195312)" d="M399.801 163.456C414.448 159.52 428.714 158.91 442.235 166.705C443.842 167.631 445.685 168.561 447.079 169.784C451.669 172.528 455.96 175.792 460.158 179.098C468.233 185.283 475.82 192.046 483.507 198.7C476.126 201.169 468.661 203.561 461.4 206.364C418.408 222.446 383.021 241.07 350.085 273.495C338.311 285.086 327.584 297.327 318.382 311.073C314.095 281.6 316.378 257.933 329.2 230.79C343.77 199.947 367.29 175.039 399.801 163.456Z"/>
	<path fill="#F9EFC3" transform="scale(0.195312 0.195312)" d="M417.384 173.715C418.533 172.314 420.348 171.597 422.003 170.903C429.183 167.895 436.296 168.345 443.335 171.343C444.215 171.071 444.899 170.954 445.814 170.997L446.707 171.048C447.084 170.42 446.905 170.821 447.079 169.784C451.669 172.528 455.96 175.792 460.158 179.098C468.233 185.283 475.82 192.046 483.507 198.7C476.126 201.169 468.661 203.561 461.4 206.364C458.361 203.546 456.225 198.942 453.203 195.828C443.306 185.625 439.193 184.485 426.772 178.643C423.569 177.137 420.577 175.25 417.384 173.715Z"/>
	<path fill="#BF4325" transform="scale(0.195312 0.195312)" d="M102.245 347.811C105.253 350.478 107.853 354.97 110.401 358.192C115.828 364.938 121.344 371.613 126.947 378.214C140.918 394.71 156.227 410.036 171.814 424.99C171.27 432.472 170.018 439.847 169.785 447.363C168.675 483.123 177.631 513.721 193.987 545.195C191.677 543.744 189.407 542.22 187.123 540.729C180.053 535.838 172.59 531.447 165.456 526.632C143.77 511.994 108.346 486.343 97.3265 462.663C84.2032 434.463 91.6594 376.726 102.245 347.811Z"/>
	<defs>
		<linearGradient id="gradient_1" gradientUnits="userSpaceOnUse" x1="358.6694" y1="408.80453" x2="340.98523" y2="270.50684">
			<stop offset="0" stop-color="#C29C1D"/>
			<stop offset="1" stop-color="#F3CB28"/>
		</linearGradient>
	</defs>
	<path fill="url(#gradient_1)" transform="scale(0.195312 0.195312)" d="M306.909 388.825C302.912 374.95 301.002 363.267 304.649 348.96C312.306 318.925 342.08 285.657 365.203 265.653C369.986 261.515 375.006 256.901 380.434 253.64C378.392 257.641 368.788 263.551 365.196 267.31C368.614 267.938 387.823 267.156 391.738 266.347C393.73 262.766 395.979 257.278 399.939 255.579C393.484 264.152 390.387 272.105 387.648 282.375C368.17 293.286 349.72 314.583 340.749 334.964C329.084 361.465 334.012 388.448 344.012 414.464C331.605 406.086 318.798 397.91 306.909 388.825Z"/>
	<path fill="#6E481A" transform="scale(0.195312 0.195312)" d="M242.177 649.296C244.757 650.724 251.729 660.17 254.213 662.959C262.592 672.371 271.794 681.043 280.711 689.939L272.029 693.015C262.906 696.414 253.734 699.683 244.518 702.82C244.307 684.97 242.922 667.128 242.177 649.296Z"/>
	<defs>
		<linearGradient id="gradient_2" gradientUnits="userSpaceOnUse" x1="542.4317" y1="245.7068" x2="550.90015" y2="233.4062">
			<stop offset="0" stop-color="#B48B0F"/>
			<stop offset="1" stop-color="#E8B822"/>
		</linearGradient>
	</defs>
	<path fill="url(#gradient_2)" transform="scale(0.195312 0.195312)" d="M525.858 223.689C533.222 223.733 540.224 225.135 546.418 229.293C556.487 236.052 562.359 248.232 564.708 259.818C555.186 254.505 547.141 247.922 536.987 243.553C535.324 238.322 532.092 233.208 529.087 228.623C527.995 226.958 526.644 225.536 525.858 223.689Z"/>
	<path fill="#C19157" transform="scale(0.195312 0.195312)" d="M154.01 199.101C158.809 198.645 162.112 198.966 166.287 201.502C157.22 204.212 150.509 206.897 144.971 215.061C143.664 217.504 142.813 219.931 142.527 222.691C142.507 222.891 142.491 223.091 142.473 223.291L141.841 223.269C141.151 222.629 140.905 222.269 140.65 221.334C139.491 217.096 140.684 209.128 142.96 205.496C145.551 201.361 149.547 200.083 154.01 199.101Z"/>
	<path fill="#EE7A18" transform="scale(0.195312 0.195312)" d="M653.306 373.481C658.246 374.463 663.085 376.848 667.298 379.565C675.19 384.651 682.528 392.877 684.505 402.256C680.863 400.377 658.573 378.402 653.306 373.481Z"/>
	<path fill="#F6F5EC" transform="scale(0.195312 0.195312)" d="M844.375 656.582L844.851 657.246C844.667 657.986 844.677 658.05 844.33 658.848C842.372 663.344 836.502 666.974 832.01 668.377C828.242 669.553 825.222 669.581 821.716 667.77C820.091 666.686 818.673 665.356 817.212 664.064C826.37 661.961 835.432 659.465 844.375 656.582Z"/>
	<path fill="#F6F5EC" transform="scale(0.195312 0.195312)" d="M882.285 641.982C882.553 642.188 882.802 642.672 882.994 642.956C883.034 643.959 883.105 645.06 882.777 646.022C881.476 649.845 877.026 653.43 873.477 655.033C869.415 656.868 866.369 656.754 862.225 655.254C862.112 655.188 861.995 655.126 861.884 655.056C860.841 654.403 859.901 653.858 859.599 652.629C866.375 648.279 874.938 645.472 882.285 641.982Z"/>
	<path fill="#F6F5EC" transform="scale(0.195312 0.195312)" d="M802.851 665.73L804.545 665.595L804.908 666.168C803.767 668.537 801.833 670.39 799.546 671.671C794.333 674.592 787.956 674.882 782.331 673.152L781.83 672.839C780.084 671.731 778.408 670.779 777.923 668.671C781.93 666.565 797.505 666.2 802.851 665.73Z"/>
	<path fill="#F6F5EC" transform="scale(0.195312 0.195312)" d="M574.981 621.699C579.351 623.653 596.635 629.762 599.208 632.157L598.672 633.099C597.286 633.765 595.748 634.29 594.249 634.629C590.118 635.564 585.209 634.974 581.605 632.688C577.329 629.974 576.058 626.351 574.981 621.699Z"/>
	<path fill="#F6F5EC" transform="scale(0.195312 0.195312)" d="M649.189 650.191C656.022 651.335 669.009 654.889 675.376 657.539L673.417 659.504C673.023 659.697 672.626 659.883 672.225 660.062C667.774 662.022 662.425 661.625 658.008 659.731C653.379 657.746 650.92 654.824 649.189 650.191Z"/>
	<path fill="#F6F5EC" transform="scale(0.195312 0.195312)" d="M611.952 637.154C616.385 638.356 632.819 643.105 635.642 645.765L634.878 647.013C633.676 647.661 632.381 648.347 631.06 648.701C627.011 649.789 622.041 648.83 618.507 646.66C614.688 644.314 613.072 641.374 611.952 637.154Z"/>
	<path fill="#F6F5EC" transform="scale(0.195312 0.195312)" d="M538.091 604.874C544.358 607.139 556.01 611.946 561.152 615.956L560.841 616.788C559.672 617.273 558.494 617.805 557.271 618.14C553.618 619.142 548.861 617.918 545.675 616.045C541.234 613.435 539.259 609.735 538.091 604.874Z"/>
	<path fill="#F6F5EC" transform="scale(0.195312 0.195312)" d="M470.855 568.817C474.503 570.94 489.765 579.001 491.379 580.895L490.845 581.814C489.731 582.363 488.565 582.979 487.352 583.27C484.194 584.026 480.492 583.088 477.844 581.301C473.244 578.198 471.737 574.001 470.855 568.817Z"/>
	<path fill="#F6F5EC" transform="scale(0.195312 0.195312)" d="M689.744 661.09C693.05 661.68 714.404 665.003 715.602 666.34L713.533 668.107C713.388 668.191 713.245 668.28 713.096 668.358C708.721 670.622 703.947 670.862 699.29 669.297C694.938 667.835 691.769 665.188 689.744 661.09Z"/>
	<path fill="#F6F5EC" transform="scale(0.195312 0.195312)" d="M732.479 667.545C741.348 668.436 750.462 668.116 759.243 669.154C759.088 670.326 757.839 671.256 757.042 672.129C753.007 674.578 748.77 675.421 744.087 674.682C739.043 673.886 735.469 671.614 732.479 667.545Z"/>
	<path fill="#F6F5EC" transform="scale(0.195312 0.195312)" d="M502.344 587.184C505.806 588.069 521.611 595.805 523.906 598.13L523.387 599.155C521.957 599.716 520.592 600.223 519.04 600.288C514.373 600.484 509.465 598.79 506.09 595.527C503.557 593.078 502.456 590.671 502.344 587.184Z"/>
	<path fill="#F6F5EC" transform="scale(0.195312 0.195312)" d="M909.875 621.418C910.716 622.874 910.642 624.299 910.25 625.952C909.199 630.381 905.688 634.872 901.728 637.082C899.637 638.248 898.209 638.552 895.896 637.953C895.04 637.263 894.34 636.545 893.61 635.723C894.465 634.404 907.079 624.12 909.875 621.418Z"/>
	<path fill="#F6F5EC" transform="scale(0.195312 0.195312)" d="M450.056 556.343C454.394 558.889 458.696 561.45 462.908 564.202L462.807 564.591L459.496 566.31C456.675 566.915 454.014 566.815 451.313 565.649C449.827 565.007 448.611 563.767 448.102 562.216C447.369 559.985 448.937 558.142 450.056 556.343Z"/>
</svg>
